<svg width="117" height="140" viewBox="0 0 117 140" fill="none" xmlns="http://www.w3.org/2000/svg">
<circle cx="53.085" cy="31.355" r="31.355" fill="#FB3B64"/>
<path d="M10.373 93.01V95.89H1.73305V93.01H4.57305V87.91C4.45305 88.07 4.26638 88.23 4.01305 88.39C3.75971 88.55 3.47305 88.7033 3.15305 88.85C2.84638 88.9967 2.53305 89.1167 2.21305 89.21C1.89305 89.29 1.59971 89.33 1.33305 89.33V86.37C1.55971 86.37 1.83971 86.3033 2.17305 86.17C2.50638 86.0233 2.83971 85.8433 3.17305 85.63C3.51971 85.4167 3.81971 85.2033 4.07305 84.99C4.33971 84.7767 4.50638 84.6033 4.57305 84.47H7.83305V93.01H10.373ZM28.1646 90.03C28.1646 91.2033 27.9379 92.25 27.4846 93.17C27.0313 94.0767 26.4113 94.79 25.6246 95.31C24.8379 95.83 23.9446 96.09 22.9446 96.09C21.9579 96.09 21.0646 95.83 20.2646 95.31C19.4779 94.79 18.8579 94.0767 18.4046 93.17C17.9513 92.25 17.7246 91.2033 17.7246 90.03C17.7246 88.8567 17.9513 87.8167 18.4046 86.91C18.8579 85.99 19.4779 85.27 20.2646 84.75C21.0646 84.2167 21.9579 83.95 22.9446 83.95C23.9446 83.95 24.8379 84.2167 25.6246 84.75C26.4113 85.27 27.0313 85.99 27.4846 86.91C27.9379 87.8167 28.1646 88.8567 28.1646 90.03ZM24.9446 90.03C24.9446 89.4033 24.8579 88.8567 24.6846 88.39C24.5113 87.9233 24.2713 87.5567 23.9646 87.29C23.6713 87.0233 23.3313 86.89 22.9446 86.89C22.5446 86.89 22.1913 87.0233 21.8846 87.29C21.5779 87.5567 21.3379 87.9233 21.1646 88.39C21.0046 88.8567 20.9246 89.4033 20.9246 90.03C20.9246 90.6567 21.0046 91.2033 21.1646 91.67C21.3379 92.1367 21.5779 92.5033 21.8846 92.77C22.1913 93.0233 22.5446 93.15 22.9446 93.15C23.3313 93.15 23.6713 93.0233 23.9646 92.77C24.2713 92.5033 24.5113 92.1367 24.6846 91.67C24.8579 91.2033 24.9446 90.6567 24.9446 90.03ZM46.4098 90.03C46.4098 91.2033 46.1831 92.25 45.7298 93.17C45.2764 94.0767 44.6564 94.79 43.8698 95.31C43.0831 95.83 42.1898 96.09 41.1898 96.09C40.2031 96.09 39.3098 95.83 38.5098 95.31C37.7231 94.79 37.1031 94.0767 36.6498 93.17C36.1964 92.25 35.9698 91.2033 35.9698 90.03C35.9698 88.8567 36.1964 87.8167 36.6498 86.91C37.1031 85.99 37.7231 85.27 38.5098 84.75C39.3098 84.2167 40.2031 83.95 41.1898 83.95C42.1898 83.95 43.0831 84.2167 43.8698 84.75C44.6564 85.27 45.2764 85.99 45.7298 86.91C46.1831 87.8167 46.4098 88.8567 46.4098 90.03ZM43.1898 90.03C43.1898 89.4033 43.1031 88.8567 42.9298 88.39C42.7564 87.9233 42.5164 87.5567 42.2098 87.29C41.9164 87.0233 41.5764 86.89 41.1898 86.89C40.7898 86.89 40.4364 87.0233 40.1298 87.29C39.8231 87.5567 39.5831 87.9233 39.4098 88.39C39.2498 88.8567 39.1698 89.4033 39.1698 90.03C39.1698 90.6567 39.2498 91.2033 39.4098 91.67C39.5831 92.1367 39.8231 92.5033 40.1298 92.77C40.4364 93.0233 40.7898 93.15 41.1898 93.15C41.5764 93.15 41.9164 93.0233 42.2098 92.77C42.5164 92.5033 42.7564 92.1367 42.9298 91.67C43.1031 91.2033 43.1898 90.6567 43.1898 90.03ZM64.6549 90.03C64.6549 91.2033 64.4283 92.25 63.9749 93.17C63.5216 94.0767 62.9016 94.79 62.1149 95.31C61.3283 95.83 60.4349 96.09 59.4349 96.09C58.4483 96.09 57.5549 95.83 56.7549 95.31C55.9683 94.79 55.3483 94.0767 54.8949 93.17C54.4416 92.25 54.2149 91.2033 54.2149 90.03C54.2149 88.8567 54.4416 87.8167 54.8949 86.91C55.3483 85.99 55.9683 85.27 56.7549 84.75C57.5549 84.2167 58.4483 83.95 59.4349 83.95C60.4349 83.95 61.3283 84.2167 62.1149 84.75C62.9016 85.27 63.5216 85.99 63.9749 86.91C64.4283 87.8167 64.6549 88.8567 64.6549 90.03ZM61.4349 90.03C61.4349 89.4033 61.3483 88.8567 61.1749 88.39C61.0016 87.9233 60.7616 87.5567 60.4549 87.29C60.1616 87.0233 59.8216 86.89 59.4349 86.89C59.0349 86.89 58.6816 87.0233 58.3749 87.29C58.0683 87.5567 57.8283 87.9233 57.6549 88.39C57.4949 88.8567 57.4149 89.4033 57.4149 90.03C57.4149 90.6567 57.4949 91.2033 57.6549 91.67C57.8283 92.1367 58.0683 92.5033 58.3749 92.77C58.6816 93.0233 59.0349 93.15 59.4349 93.15C59.8216 93.15 60.1616 93.0233 60.4549 92.77C60.7616 92.5033 61.0016 92.1367 61.1749 91.67C61.3483 91.2033 61.4349 90.6567 61.4349 90.03ZM82.9001 90.03C82.9001 91.2033 82.6734 92.25 82.2201 93.17C81.7667 94.0767 81.1467 94.79 80.3601 95.31C79.5734 95.83 78.6801 96.09 77.6801 96.09C76.6934 96.09 75.8001 95.83 75.0001 95.31C74.2134 94.79 73.5934 94.0767 73.1401 93.17C72.6867 92.25 72.4601 91.2033 72.4601 90.03C72.4601 88.8567 72.6867 87.8167 73.1401 86.91C73.5934 85.99 74.2134 85.27 75.0001 84.75C75.8001 84.2167 76.6934 83.95 77.6801 83.95C78.6801 83.95 79.5734 84.2167 80.3601 84.75C81.1467 85.27 81.7667 85.99 82.2201 86.91C82.6734 87.8167 82.9001 88.8567 82.9001 90.03ZM79.6801 90.03C79.6801 89.4033 79.5934 88.8567 79.4201 88.39C79.2467 87.9233 79.0067 87.5567 78.7001 87.29C78.4067 87.0233 78.0667 86.89 77.6801 86.89C77.2801 86.89 76.9267 87.0233 76.6201 87.29C76.3134 87.5567 76.0734 87.9233 75.9001 88.39C75.7401 88.8567 75.6601 89.4033 75.6601 90.03C75.6601 90.6567 75.7401 91.2033 75.9001 91.67C76.0734 92.1367 76.3134 92.5033 76.6201 92.77C76.9267 93.0233 77.2801 93.15 77.6801 93.15C78.0667 93.15 78.4067 93.0233 78.7001 92.77C79.0067 92.5033 79.2467 92.1367 79.4201 91.67C79.5934 91.2033 79.6801 90.6567 79.6801 90.03ZM101.145 90.03C101.145 91.2033 100.919 92.25 100.465 93.17C100.012 94.0767 99.3919 94.79 98.6052 95.31C97.8186 95.83 96.9252 96.09 95.9252 96.09C94.9386 96.09 94.0452 95.83 93.2452 95.31C92.4586 94.79 91.8386 94.0767 91.3852 93.17C90.9319 92.25 90.7052 91.2033 90.7052 90.03C90.7052 88.8567 90.9319 87.8167 91.3852 86.91C91.8386 85.99 92.4586 85.27 93.2452 84.75C94.0452 84.2167 94.9386 83.95 95.9252 83.95C96.9252 83.95 97.8186 84.2167 98.6052 84.75C99.3919 85.27 100.012 85.99 100.465 86.91C100.919 87.8167 101.145 88.8567 101.145 90.03ZM97.9252 90.03C97.9252 89.4033 97.8386 88.8567 97.6652 88.39C97.4919 87.9233 97.2519 87.5567 96.9452 87.29C96.6519 87.0233 96.3119 86.89 95.9252 86.89C95.5252 86.89 95.1719 87.0233 94.8652 87.29C94.5586 87.5567 94.3186 87.9233 94.1452 88.39C93.9852 88.8567 93.9052 89.4033 93.9052 90.03C93.9052 90.6567 93.9852 91.2033 94.1452 91.67C94.3186 92.1367 94.5586 92.5033 94.8652 92.77C95.1719 93.0233 95.5252 93.15 95.9252 93.15C96.3119 93.15 96.6519 93.0233 96.9452 92.77C97.2519 92.5033 97.4919 92.1367 97.6652 91.67C97.8386 91.2033 97.9252 90.6567 97.9252 90.03ZM115.61 87.51V90.07H113.71V92.15H110.83V90.07H108.95V87.51H110.83V85.43H113.71V87.51H115.61Z" fill="black"/>
<path d="M12.165 131.597C12.165 130.758 12.335 129.993 12.675 129.302C13.0263 128.599 13.508 128.038 14.12 127.619C14.732 127.2 15.429 126.99 16.211 126.99C16.9476 126.99 17.605 127.188 18.183 127.585C18.7723 127.97 19.2313 128.441 19.56 128.996V123.59H20.716V134.606C20.716 134.765 20.75 134.884 20.818 134.963C20.886 135.031 20.988 135.071 21.124 135.082V136C20.8973 136.034 20.7216 136.045 20.597 136.034C20.359 136.023 20.1493 135.926 19.968 135.745C19.7866 135.564 19.696 135.365 19.696 135.15V134.283C19.3446 134.861 18.8686 135.32 18.268 135.66C17.6673 136 17.044 136.17 16.398 136.17C15.786 136.17 15.2193 136.045 14.698 135.796C14.188 135.547 13.7403 135.207 13.355 134.776C12.981 134.345 12.6863 133.858 12.471 133.314C12.267 132.759 12.165 132.186 12.165 131.597ZM19.56 132.957V130.22C19.4126 129.812 19.1746 129.444 18.846 129.115C18.5173 128.775 18.1433 128.509 17.724 128.316C17.316 128.112 16.908 128.01 16.5 128.01C16.024 128.01 15.5933 128.112 15.208 128.316C14.8226 128.509 14.4883 128.775 14.205 129.115C13.933 129.455 13.7233 129.84 13.576 130.271C13.4286 130.702 13.355 131.144 13.355 131.597C13.355 132.073 13.4343 132.526 13.593 132.957C13.763 133.388 14.001 133.773 14.307 134.113C14.613 134.442 14.9643 134.697 15.361 134.878C15.7576 135.059 16.1883 135.15 16.653 135.15C16.9476 135.15 17.2536 135.093 17.571 134.98C17.8883 134.867 18.1886 134.714 18.472 134.521C18.7666 134.317 19.0103 134.079 19.203 133.807C19.3956 133.535 19.5146 133.252 19.56 132.957ZM22.6212 133.45C22.6212 132.895 22.7798 132.419 23.0972 132.022C23.4145 131.614 23.8508 131.302 24.4062 131.087C24.9728 130.86 25.6245 130.747 26.3612 130.747C26.7918 130.747 27.2395 130.781 27.7042 130.849C28.1688 130.917 28.5825 131.019 28.9452 131.155V130.407C28.9452 129.659 28.7242 129.064 28.2822 128.622C27.8402 128.18 27.2282 127.959 26.4462 127.959C25.9702 127.959 25.4998 128.05 25.0352 128.231C24.5818 128.401 24.1058 128.656 23.6072 128.996L23.1652 128.18C23.7432 127.783 24.3098 127.489 24.8652 127.296C25.4205 127.092 25.9872 126.99 26.5652 126.99C27.6532 126.99 28.5145 127.302 29.1492 127.925C29.7838 128.548 30.1012 129.41 30.1012 130.509V134.606C30.1012 134.765 30.1352 134.884 30.2032 134.963C30.2712 135.031 30.3788 135.071 30.5262 135.082V136C30.4015 136.011 30.2938 136.023 30.2032 136.034C30.1125 136.045 30.0445 136.045 29.9992 136.034C29.7158 136.023 29.5005 135.932 29.3532 135.762C29.2058 135.592 29.1265 135.411 29.1152 135.218L29.0982 134.572C28.7015 135.082 28.1858 135.479 27.5512 135.762C26.9165 136.034 26.2705 136.17 25.6132 136.17C25.0465 136.17 24.5308 136.051 24.0662 135.813C23.6128 135.564 23.2558 135.235 22.9952 134.827C22.7458 134.408 22.6212 133.949 22.6212 133.45ZM28.5542 134.13C28.6788 133.971 28.7752 133.818 28.8432 133.671C28.9112 133.524 28.9452 133.393 28.9452 133.28V131.988C28.5598 131.841 28.1575 131.727 27.7382 131.648C27.3302 131.569 26.9165 131.529 26.4972 131.529C25.6698 131.529 25.0012 131.693 24.4912 132.022C23.9812 132.351 23.7262 132.798 23.7262 133.365C23.7262 133.694 23.8112 134.005 23.9812 134.3C24.1512 134.583 24.4005 134.821 24.7292 135.014C25.0578 135.195 25.4432 135.286 25.8852 135.286C26.4405 135.286 26.9562 135.178 27.4322 134.963C27.9195 134.748 28.2935 134.47 28.5542 134.13ZM32.5988 136V127.143H33.7548V136H32.5988ZM32.5988 125.29V123.59H33.7548V125.29H32.5988ZM36.352 123.59H37.508V133.994C37.508 134.436 37.5873 134.725 37.746 134.861C37.9046 134.997 38.0973 135.065 38.324 135.065C38.528 135.065 38.732 135.042 38.936 134.997C39.14 134.952 39.3156 134.906 39.463 134.861L39.667 135.796C39.4516 135.887 39.1853 135.96 38.868 136.017C38.562 136.074 38.2956 136.102 38.069 136.102C37.5476 136.102 37.1283 135.949 36.811 135.643C36.505 135.337 36.352 134.918 36.352 134.385V123.59ZM41.1606 138.72C41.3192 138.731 41.4722 138.737 41.6196 138.737C41.7669 138.748 41.8746 138.743 41.9426 138.72C42.0786 138.697 42.2089 138.618 42.3336 138.482C42.4582 138.346 42.6056 138.085 42.7756 137.7C42.9456 137.315 43.1836 136.748 43.4896 136L39.6306 127.143H40.8546L44.1016 134.81L47.0936 127.143H48.2496L43.6596 138.567C43.5802 138.782 43.4612 138.981 43.3026 139.162C43.1439 139.355 42.9456 139.502 42.7076 139.604C42.4809 139.717 42.1976 139.78 41.8576 139.791C41.7556 139.802 41.6479 139.802 41.5346 139.791C41.4326 139.791 41.3079 139.78 41.1606 139.757V138.72ZM57.5576 136.17C56.9229 136.17 56.3336 136.051 55.7896 135.813C55.2456 135.564 54.7753 135.229 54.3786 134.81C53.9819 134.379 53.6703 133.886 53.4436 133.331C53.2283 132.776 53.1206 132.181 53.1206 131.546C53.1206 130.719 53.3076 129.959 53.6816 129.268C54.0669 128.577 54.5939 128.027 55.2626 127.619C55.9313 127.2 56.6906 126.99 57.5406 126.99C58.4133 126.99 59.1726 127.2 59.8186 127.619C60.4759 128.038 60.9916 128.594 61.3656 129.285C61.7396 129.965 61.9266 130.713 61.9266 131.529C61.9266 131.62 61.9266 131.71 61.9266 131.801C61.9266 131.88 61.9209 131.943 61.9096 131.988H54.3276C54.3843 132.623 54.5599 133.189 54.8546 133.688C55.1606 134.175 55.5516 134.566 56.0276 134.861C56.5149 135.144 57.0419 135.286 57.6086 135.286C58.1866 135.286 58.7306 135.139 59.2406 134.844C59.7619 134.549 60.1246 134.164 60.3286 133.688L61.3316 133.96C61.1503 134.379 60.8726 134.759 60.4986 135.099C60.1246 135.439 59.6826 135.705 59.1726 135.898C58.6739 136.079 58.1356 136.17 57.5576 136.17ZM54.2936 131.155H60.8386C60.7933 130.509 60.6176 129.942 60.3116 129.455C60.0169 128.968 59.6259 128.588 59.1386 128.316C58.6626 128.033 58.1356 127.891 57.5576 127.891C56.9796 127.891 56.4526 128.033 55.9766 128.316C55.5006 128.588 55.1096 128.973 54.8036 129.472C54.5089 129.959 54.3389 130.52 54.2936 131.155ZM71.1562 136H70.0002V131.053C70.0002 130.01 69.8472 129.251 69.5412 128.775C69.2352 128.288 68.7535 128.044 68.0962 128.044C67.6428 128.044 67.1952 128.157 66.7532 128.384C66.3112 128.599 65.9202 128.9 65.5802 129.285C65.2515 129.659 65.0135 130.09 64.8662 130.577V136H63.7102V127.143H64.7642V129.149C65.0022 128.718 65.3138 128.344 65.6992 128.027C66.0845 127.698 66.5208 127.443 67.0082 127.262C67.4955 127.081 67.9998 126.99 68.5212 126.99C69.0085 126.99 69.4222 127.081 69.7622 127.262C70.1022 127.443 70.3742 127.704 70.5782 128.044C70.7822 128.373 70.9295 128.775 71.0202 129.251C71.1108 129.716 71.1562 130.237 71.1562 130.815V136ZM77.7883 135.575C77.6976 135.609 77.5559 135.671 77.3633 135.762C77.1706 135.853 76.9383 135.932 76.6663 136C76.3943 136.068 76.0996 136.102 75.7823 136.102C75.4536 136.102 75.1419 136.04 74.8473 135.915C74.5639 135.79 74.3373 135.603 74.1673 135.354C73.9973 135.093 73.9123 134.776 73.9123 134.402V128.061H72.6883V127.143H73.9123V124.151H75.0683V127.143H77.1083V128.061H75.0683V134.079C75.0909 134.396 75.2043 134.634 75.4083 134.793C75.6236 134.952 75.8673 135.031 76.1393 135.031C76.4566 135.031 76.7456 134.98 77.0063 134.878C77.2669 134.765 77.4256 134.685 77.4823 134.64L77.7883 135.575ZM83.6526 128.163C82.8819 128.186 82.2019 128.401 81.6126 128.809C81.0346 129.217 80.6266 129.778 80.3886 130.492V136H79.2326V127.143H80.3206V129.268C80.6266 128.645 81.0289 128.14 81.5276 127.755C82.0376 127.37 82.5759 127.154 83.1426 127.109C83.2559 127.098 83.3523 127.092 83.4316 127.092C83.5223 127.092 83.5959 127.098 83.6526 127.109V128.163ZM85.1926 136V127.143H86.3486V136H85.1926ZM85.1926 125.29V123.59H86.3486V125.29H85.1926ZM92.7197 136.17C92.0851 136.17 91.4957 136.051 90.9517 135.813C90.4077 135.564 89.9374 135.229 89.5407 134.81C89.1441 134.379 88.8324 133.886 88.6057 133.331C88.3904 132.776 88.2827 132.181 88.2827 131.546C88.2827 130.719 88.4697 129.959 88.8437 129.268C89.2291 128.577 89.7561 128.027 90.4247 127.619C91.0934 127.2 91.8527 126.99 92.7027 126.99C93.5754 126.99 94.3347 127.2 94.9807 127.619C95.6381 128.038 96.1537 128.594 96.5277 129.285C96.9017 129.965 97.0887 130.713 97.0887 131.529C97.0887 131.62 97.0887 131.71 97.0887 131.801C97.0887 131.88 97.0831 131.943 97.0717 131.988H89.4897C89.5464 132.623 89.7221 133.189 90.0167 133.688C90.3227 134.175 90.7137 134.566 91.1897 134.861C91.6771 135.144 92.2041 135.286 92.7707 135.286C93.3487 135.286 93.8927 135.139 94.4027 134.844C94.9241 134.549 95.2867 134.164 95.4907 133.688L96.4937 133.96C96.3124 134.379 96.0347 134.759 95.6607 135.099C95.2867 135.439 94.8447 135.705 94.3347 135.898C93.8361 136.079 93.2977 136.17 92.7197 136.17ZM89.4557 131.155H96.0007C95.9554 130.509 95.7797 129.942 95.4737 129.455C95.1791 128.968 94.7881 128.588 94.3007 128.316C93.8247 128.033 93.2977 127.891 92.7197 127.891C92.1417 127.891 91.6147 128.033 91.1387 128.316C90.6627 128.588 90.2717 128.973 89.9657 129.472C89.6711 129.959 89.5011 130.52 89.4557 131.155ZM101.779 136.17C101.054 136.17 100.38 136.051 99.7563 135.813C99.1329 135.575 98.5946 135.212 98.1413 134.725L98.6173 133.909C99.1159 134.374 99.6146 134.714 100.113 134.929C100.623 135.133 101.162 135.235 101.728 135.235C102.42 135.235 102.981 135.099 103.411 134.827C103.842 134.544 104.057 134.141 104.057 133.62C104.057 133.269 103.95 133.002 103.734 132.821C103.53 132.628 103.23 132.475 102.833 132.362C102.448 132.237 101.983 132.107 101.439 131.971C100.827 131.801 100.312 131.625 99.8923 131.444C99.4843 131.251 99.1726 131.013 98.9573 130.73C98.7533 130.435 98.6513 130.056 98.6513 129.591C98.6513 129.013 98.7929 128.537 99.0763 128.163C99.3709 127.778 99.7676 127.489 100.266 127.296C100.776 127.092 101.343 126.99 101.966 126.99C102.646 126.99 103.247 127.098 103.768 127.313C104.29 127.528 104.715 127.829 105.043 128.214L104.482 128.996C104.165 128.633 103.785 128.367 103.343 128.197C102.913 128.016 102.431 127.925 101.898 127.925C101.536 127.925 101.19 127.976 100.861 128.078C100.533 128.169 100.261 128.327 100.045 128.554C99.8413 128.769 99.7393 129.07 99.7393 129.455C99.7393 129.772 99.8186 130.022 99.9773 130.203C100.136 130.373 100.374 130.52 100.691 130.645C101.009 130.758 101.4 130.883 101.864 131.019C102.533 131.2 103.117 131.387 103.615 131.58C104.114 131.761 104.499 131.999 104.771 132.294C105.043 132.589 105.179 133.002 105.179 133.535C105.179 134.362 104.868 135.008 104.244 135.473C103.621 135.938 102.799 136.17 101.779 136.17Z" fill="#A5A5A5"/>
<g clip-path="url(#clip0_3_65)">
<path d="M73.819 31H74.17C75.5726 31.0269 76.9642 30.747 78.2473 30.1797C79.5304 29.6125 80.674 28.7716 81.598 27.716C85.663 23.047 84.979 15.041 84.924 14.275C84.624 8.54099 81.975 5.79699 79.784 4.50999C78.056 3.52578 76.1026 3.00558 74.114 2.99999H73.937C71.9481 2.99421 69.9915 3.50265 68.257 4.47599C66.04 5.75599 63.35 8.49999 63.084 14.29C63.01 15.045 62.345 23.058 66.41 27.731C67.3342 28.7803 68.4756 29.6161 69.7549 30.1806C71.0342 30.745 72.4209 31.0246 73.819 31ZM65.907 14.546V14.46C66.265 6.74499 71.627 5.91799 73.926 5.91799H74.052C76.897 5.98199 81.731 7.16699 82.06 14.464C82.0541 14.4927 82.0541 14.5223 82.06 14.551C82.06 14.626 82.799 21.945 79.473 25.796C78.7926 26.5536 77.954 27.1524 77.0165 27.5499C76.079 27.9473 75.0656 28.1338 74.048 28.096H73.941C72.9241 28.1415 71.9099 27.9585 70.9729 27.5605C70.036 27.1625 69.2002 26.5595 68.527 25.796C65.179 21.96 65.896 14.611 65.907 14.546Z" fill="black"/>
<path d="M96 44.372V44.072C95.936 41.951 95.8 36.988 91.149 35.402L91.04 35.368C87.877 34.498 84.8727 33.1299 82.14 31.315C81.9847 31.2009 81.8081 31.1189 81.6207 31.074C81.4333 31.029 81.2388 31.0219 81.0486 31.0531C80.8584 31.0844 80.6764 31.1533 80.5132 31.2558C80.35 31.3584 80.209 31.4925 80.0983 31.6503C79.9877 31.8081 79.9097 31.9864 79.8689 32.1748C79.8281 32.3632 79.8253 32.5578 79.8608 32.7472C79.8963 32.9367 79.9692 33.1171 80.0754 33.278C80.1815 33.4389 80.3188 33.5769 80.479 33.684C83.4727 35.6922 86.7722 37.2018 90.249 38.154C92.744 39.045 93.022 41.711 93.097 44.17C93.0915 44.2589 93.0915 44.3481 93.097 44.437C93.1164 45.5454 93.0411 46.6534 92.872 47.749C91.162 48.723 84.357 52.133 74.009 52.133C63.661 52.133 56.854 48.71 55.111 47.725C54.9365 46.63 54.8612 45.5215 54.886 44.413V44.146C54.961 41.702 55.239 39.033 57.734 38.13C61.209 37.1726 64.5076 35.6634 67.504 33.66C67.6642 33.5529 67.8014 33.4149 67.9076 33.254C68.0138 33.0931 68.0867 32.9127 68.1222 32.7232C68.1576 32.5338 68.1549 32.3392 68.1141 32.1508C68.0733 31.9624 67.9953 31.7841 67.8847 31.6263C67.774 31.4685 67.633 31.3344 67.4698 31.2318C67.3066 31.1293 67.1246 31.0604 66.9344 31.0291C66.7442 30.9979 66.5497 31.005 66.3623 31.0499C66.1748 31.0949 65.9983 31.1769 65.843 31.291C63.1236 33.1117 60.1295 34.4839 56.975 35.355L56.866 35.389C52.218 36.987 52.079 41.946 52 44.059C52.0055 44.1479 52.0055 44.2371 52 44.326V44.36C51.9444 45.9959 52.128 47.6312 52.545 49.214C52.6554 49.4893 52.8519 49.7215 53.105 49.876C53.428 50.09 61.127 55.001 74.016 55.001C86.905 55.001 94.6 50.079 94.926 49.876C95.1767 49.7148 95.371 49.4796 95.482 49.203C95.8848 47.6257 96.0593 45.9988 96 44.372Z" fill="black"/>
</g>
<defs>
<clipPath id="clip0_3_65">
<rect width="44" height="52" fill="white" transform="translate(52 3)"/>
</clipPath>
</defs>
</svg>
