<svg width="24" height="24" viewBox="0 0 24 24" fill="none" xmlns="http://www.w3.org/2000/svg">
<g clip-path="url(#clip0_4_870)">
<path d="M12 24C18.6274 24 24 18.6274 24 12C24 5.37258 18.6274 0 12 0C5.37258 0 0 5.37258 0 12C0 18.6274 5.37258 24 12 24Z" fill="#3B5998"/>
<path d="M15.0881 12.4799H12.9021V20.2379H9.59111V12.4799H8.01611V9.75386H9.59111V7.98886C9.56186 7.5472 9.62909 7.10446 9.78814 6.69139C9.94719 6.27831 10.1942 5.90481 10.5121 5.59681C10.83 5.2888 11.2112 5.05368 11.6291 4.90778C12.0469 4.76187 12.4916 4.70867 12.9321 4.75187L15.3851 4.76187V7.40886H13.6051C13.5079 7.40287 13.4105 7.41834 13.3199 7.45419C13.2293 7.49003 13.1478 7.54537 13.0809 7.61628C13.0141 7.68719 12.9638 7.77193 12.9334 7.86449C12.903 7.95705 12.8933 8.05516 12.9051 8.15187V9.75187H15.3801L15.0881 12.4799Z" fill="white"/>
</g>
<defs>
<clipPath id="clip0_4_870">
<rect width="24" height="24" fill="white"/>
</clipPath>
</defs>
</svg>
