<svg width="27" height="27" viewBox="0 0 27 27" fill="none" xmlns="http://www.w3.org/2000/svg">
<g clip-path="url(#clip0_4_822)">
<path d="M21.8001 4H4.20007C3.61171 4.00896 3.05089 4.25083 2.64056 4.67259C2.23023 5.09436 2.00386 5.66161 2.01107 6.25L2.00007 19.75C1.99526 20.3396 2.22391 20.9071 2.63611 21.3287C3.0483 21.7502 3.61054 21.9916 4.20007 22H21.8001C22.3896 21.9916 22.9519 21.7502 23.364 21.3287C23.7762 20.9071 24.0049 20.3396 24.0001 19.75V6.25C24.0049 5.66043 23.7762 5.0929 23.364 4.67134C22.9519 4.24978 22.3896 4.00843 21.8001 4ZM21.8001 19.75H4.20007V8.5L13.0001 14.125L21.8001 8.5V19.75ZM13.0001 11.875L4.20007 6.25H21.8001L13.0001 11.875Z" fill="#08A6E4"/>
</g>
<defs>
<clipPath id="clip0_4_822">
<rect width="27" height="27" fill="white"/>
</clipPath>
</defs>
</svg>
