<svg width="27" height="27" viewBox="0 0 27 27" fill="none" xmlns="http://www.w3.org/2000/svg">
<g clip-path="url(#clip0_4_826)">
<path d="M7.022 11.656C8.63264 14.8054 11.1946 17.3674 14.344 18.978L16.788 16.534C16.933 16.388 17.116 16.2855 17.3163 16.2384C17.5166 16.1912 17.7261 16.2011 17.921 16.267C19.2013 16.6875 20.5404 16.9012 21.888 16.9C22.1826 16.9005 22.465 17.0177 22.6734 17.2259C22.8818 17.4341 22.9992 17.7164 23 18.011V21.889C22.9992 22.1834 22.8819 22.4655 22.6737 22.6737C22.4655 22.8819 22.1834 22.9992 21.889 23C19.4084 23.0003 16.952 22.5119 14.6602 21.5627C12.3683 20.6135 10.2859 19.2222 8.53187 17.4681C6.77782 15.7141 5.38647 13.6317 4.4373 11.3398C3.48814 9.04798 2.99974 6.59161 3 4.111C3.00079 3.81659 3.1181 3.53446 3.32628 3.32628C3.53446 3.1181 3.81659 3.00079 4.111 3H8C8.29441 3.00079 8.57654 3.1181 8.78472 3.32628C8.9929 3.53446 9.11021 3.81659 9.111 4.111C9.10889 5.45865 9.32259 6.79793 9.744 8.078C9.8068 8.27411 9.81407 8.48377 9.765 8.68376C9.71593 8.88374 9.61244 9.06623 9.466 9.211L7.022 11.656Z" stroke="#08A6E4" stroke-width="2"/>
</g>
<defs>
<clipPath id="clip0_4_826">
<rect width="27" height="27" fill="white"/>
</clipPath>
</defs>
</svg>
