<svg width="117" height="140" fill="none" xmlns="http://www.w3.org/2000/svg"><circle cx="53.085" cy="31.355" r="31.355" fill="#FB3B64"/><path d="M10.373 93.01v2.88h-8.64v-2.88h2.84v-5.1c-.12.16-.307.32-.56.48-.253.16-.54.313-.86.46-.307.147-.62.267-.94.36-.32.08-.613.12-.88.12v-2.96c.227 0 .507-.067.84-.2a7.355 7.355 0 0 0 1-.54c.347-.213.647-.427.9-.64.267-.213.433-.387.5-.52h3.26v8.54h2.54Zm17.792-2.98c0 1.173-.227 2.22-.68 3.14-.454.907-1.074 1.62-1.86 2.14-.787.52-1.68.78-2.68.78-.987 0-1.88-.26-2.68-.78-.787-.52-1.407-1.233-1.86-2.14-.454-.92-.68-1.967-.68-3.14s.226-2.213.68-3.12c.453-.92 1.073-1.64 1.86-2.16.8-.533 1.693-.8 2.68-.8 1 0 1.893.267 2.68.8.786.52 1.406 1.24 1.86 2.16.453.907.68 1.947.68 3.12Zm-3.22 0c0-.627-.087-1.173-.26-1.64-.174-.467-.414-.833-.72-1.1a1.47 1.47 0 0 0-1.02-.4c-.4 0-.754.133-1.06.4-.307.267-.547.633-.72 1.1-.16.467-.24 1.013-.24 1.64s.08 1.173.24 1.64c.173.467.413.833.72 1.1.306.253.66.38 1.06.38.386 0 .726-.127 1.02-.38.306-.267.546-.633.72-1.1.173-.467.26-1.013.26-1.64Zm21.465 0c0 1.173-.227 2.22-.68 3.14-.454.907-1.074 1.62-1.86 2.14-.787.52-1.68.78-2.68.78-.987 0-1.88-.26-2.68-.78-.787-.52-1.407-1.233-1.86-2.14-.454-.92-.68-1.967-.68-3.14s.226-2.213.68-3.12c.453-.92 1.073-1.64 1.86-2.16.8-.533 1.693-.8 2.68-.8 1 0 1.893.267 2.68.8.786.52 1.406 1.24 1.86 2.16.453.907.68 1.947.68 3.12Zm-3.22 0c0-.627-.087-1.173-.26-1.64-.174-.467-.414-.833-.72-1.1a1.47 1.47 0 0 0-1.02-.4c-.4 0-.754.133-1.06.4-.307.267-.547.633-.72 1.1-.16.467-.24 1.013-.24 1.64s.08 1.173.24 1.64c.173.467.413.833.72 1.1.306.253.66.38 1.06.38.386 0 .726-.127 1.02-.38.306-.267.546-.633.72-1.1.173-.467.26-1.013.26-1.64Zm21.465 0c0 1.173-.227 2.22-.68 3.14-.453.907-1.073 1.62-1.86 2.14-.787.52-1.68.78-2.68.78-.987 0-1.88-.26-2.68-.78-.787-.52-1.407-1.233-1.86-2.14-.453-.92-.68-1.967-.68-3.14s.227-2.213.68-3.12c.453-.92 1.073-1.64 1.86-2.16.8-.533 1.693-.8 2.68-.8 1 0 1.893.267 2.68.8.787.52 1.407 1.24 1.86 2.16.453.907.68 1.947.68 3.12Zm-3.22 0c0-.627-.087-1.173-.26-1.64-.173-.467-.413-.833-.72-1.1a1.47 1.47 0 0 0-1.02-.4c-.4 0-.753.133-1.06.4-.307.267-.547.633-.72 1.1-.16.467-.24 1.013-.24 1.64s.08 1.173.24 1.64c.173.467.413.833.72 1.1.307.253.66.38 1.06.38.387 0 .727-.127 1.02-.38.307-.267.547-.633.72-1.1.173-.467.26-1.013.26-1.64Zm21.465 0c0 1.173-.227 2.22-.68 3.14-.453.907-1.073 1.62-1.86 2.14-.787.52-1.68.78-2.68.78-.987 0-1.88-.26-2.68-.78-.787-.52-1.407-1.233-1.86-2.14-.453-.92-.68-1.967-.68-3.14s.227-2.213.68-3.12c.453-.92 1.073-1.64 1.86-2.16.8-.533 1.693-.8 2.68-.8 1 0 1.893.267 2.68.8.787.52 1.407 1.24 1.86 2.16.453.907.68 1.947.68 3.12Zm-3.22 0c0-.627-.087-1.173-.26-1.64-.173-.467-.413-.833-.72-1.1a1.47 1.47 0 0 0-1.02-.4c-.4 0-.753.133-1.06.4-.307.267-.547.633-.72 1.1-.16.467-.24 1.013-.24 1.64s.08 1.173.24 1.64c.173.467.413.833.72 1.1.307.253.66.38 1.06.38.387 0 .727-.127 1.02-.38.307-.267.547-.633.72-1.1.173-.467.26-1.013.26-1.64Zm21.465 0c0 1.173-.226 2.22-.68 3.14-.453.907-1.073 1.62-1.86 2.14-.786.52-1.68.78-2.68.78-.986 0-1.88-.26-2.68-.78-.786-.52-1.406-1.233-1.86-2.14-.453-.92-.68-1.967-.68-3.14s.227-2.213.68-3.12c.454-.92 1.074-1.64 1.86-2.16.8-.533 1.694-.8 2.68-.8 1 0 1.894.267 2.68.8.787.52 1.407 1.24 1.86 2.16.454.907.68 1.947.68 3.12Zm-3.22 0c0-.627-.086-1.173-.26-1.64-.173-.467-.413-.833-.72-1.1a1.47 1.47 0 0 0-1.02-.4c-.4 0-.753.133-1.06.4-.306.267-.546.633-.72 1.1-.16.467-.24 1.013-.24 1.64s.08 1.173.24 1.64c.174.467.414.833.72 1.1.307.253.66.38 1.06.38.387 0 .727-.127 1.02-.38.307-.267.547-.633.72-1.1.174-.467.26-1.013.26-1.64Zm17.685-2.52v2.56h-1.9v2.08h-2.88v-2.08h-1.88v-2.56h1.88v-2.08h2.88v2.08h1.9Z" fill="#000"/><path d="M12.165 131.597c0-.839.17-1.604.51-2.295a4.355 4.355 0 0 1 1.445-1.683 3.614 3.614 0 0 1 2.091-.629 3.4 3.4 0 0 1 1.972.595 4.3 4.3 0 0 1 1.377 1.411v-5.406h1.156v11.016c0 .159.034.278.102.357.068.068.17.108.306.119V136a2.379 2.379 0 0 1-.527.034.93.93 0 0 1-.629-.289c-.181-.181-.272-.38-.272-.595v-.867a3.874 3.874 0 0 1-1.428 1.377c-.6.34-1.224.51-1.87.51a3.893 3.893 0 0 1-1.7-.374 4.343 4.343 0 0 1-1.343-1.02 5.044 5.044 0 0 1-.884-1.462 4.942 4.942 0 0 1-.306-1.717Zm7.395 1.36v-2.737a2.993 2.993 0 0 0-.714-1.105 3.703 3.703 0 0 0-1.122-.799 2.716 2.716 0 0 0-1.224-.306c-.476 0-.907.102-1.292.306-.385.193-.72.459-1.003.799a3.8 3.8 0 0 0-.629 1.156 4.07 4.07 0 0 0-.221 1.326c0 .476.08.929.238 1.36.17.431.408.816.714 1.156a3.3 3.3 0 0 0 1.054.765c.397.181.827.272 1.292.272.295 0 .6-.057.918-.17.317-.113.618-.266.901-.459.295-.204.538-.442.731-.714.193-.272.312-.555.357-.85Zm3.061.493c0-.555.159-1.031.476-1.428.317-.408.754-.72 1.31-.935.566-.227 1.218-.34 1.954-.34.43 0 .878.034 1.343.102.465.068.878.17 1.241.306v-.748c0-.748-.22-1.343-.663-1.785-.442-.442-1.054-.663-1.836-.663a3.86 3.86 0 0 0-1.41.272 6.81 6.81 0 0 0-1.429.765l-.442-.816a7.193 7.193 0 0 1 1.7-.884 4.895 4.895 0 0 1 1.7-.306c1.088 0 1.95.312 2.584.935.635.623.952 1.485.952 2.584v4.097c0 .159.034.278.102.357.068.068.176.108.323.119V136a9.79 9.79 0 0 0-.323.034.617.617 0 0 1-.204 0c-.283-.011-.498-.102-.646-.272a.901.901 0 0 1-.238-.544l-.017-.646c-.396.51-.912.907-1.547 1.19a4.878 4.878 0 0 1-1.938.408 3.343 3.343 0 0 1-1.547-.357 2.899 2.899 0 0 1-1.07-.986 2.643 2.643 0 0 1-.375-1.377Zm5.933.68c.125-.159.221-.312.29-.459a.954.954 0 0 0 .101-.391v-1.292a7.035 7.035 0 0 0-2.448-.459c-.827 0-1.496.164-2.006.493-.51.329-.765.776-.765 1.343 0 .329.085.64.255.935.17.283.42.521.748.714.329.181.714.272 1.156.272.555 0 1.071-.108 1.547-.323.488-.215.862-.493 1.122-.833ZM32.6 136v-8.857h1.156V136h-1.156Zm0-10.71v-1.7h1.156v1.7h-1.156Zm3.753-1.7h1.156v10.404c0 .442.08.731.238.867a.858.858 0 0 0 .578.204c.204 0 .408-.023.612-.068.204-.045.38-.091.527-.136l.204.935a3.809 3.809 0 0 1-.799.221 4.439 4.439 0 0 1-.799.085c-.521 0-.94-.153-1.258-.459-.306-.306-.459-.725-.459-1.258V123.59Zm4.809 15.13c.158.011.311.017.459.017a.893.893 0 0 0 .323-.017.697.697 0 0 0 .39-.238c.125-.136.273-.397.443-.782.17-.385.408-.952.714-1.7l-3.86-8.857h1.225l3.247 7.667 2.992-7.667h1.156l-4.59 11.424c-.08.215-.199.414-.357.595-.16.193-.357.34-.595.442-.227.113-.51.176-.85.187-.102.011-.21.011-.323 0-.102 0-.227-.011-.374-.034v-1.037Zm16.397-2.55a4.362 4.362 0 0 1-1.768-.357 4.503 4.503 0 0 1-1.411-1.003 4.9 4.9 0 0 1-.935-1.479 4.892 4.892 0 0 1-.323-1.785c0-.827.187-1.587.56-2.278a4.42 4.42 0 0 1 1.582-1.649c.668-.419 1.428-.629 2.278-.629.872 0 1.632.21 2.278.629a4.461 4.461 0 0 1 1.547 1.666 4.58 4.58 0 0 1 .56 2.244v.272a.809.809 0 0 1-.016.187h-7.582c.056.635.232 1.201.527 1.7.306.487.697.878 1.173 1.173a3.095 3.095 0 0 0 1.58.425c.579 0 1.123-.147 1.633-.442.52-.295.884-.68 1.088-1.156l1.003.272a3.319 3.319 0 0 1-.833 1.139 4.11 4.11 0 0 1-1.326.799 4.699 4.699 0 0 1-1.615.272Zm-3.264-5.015h6.545c-.046-.646-.221-1.213-.527-1.7a3.144 3.144 0 0 0-1.173-1.139 3.036 3.036 0 0 0-1.581-.425c-.578 0-1.105.142-1.581.425a3.269 3.269 0 0 0-1.173 1.156c-.295.487-.465 1.048-.51 1.683ZM71.156 136H70v-4.947c0-1.043-.153-1.802-.459-2.278-.306-.487-.787-.731-1.445-.731a2.91 2.91 0 0 0-1.343.34 3.74 3.74 0 0 0-1.173.901 3.443 3.443 0 0 0-.714 1.292V136H63.71v-8.857h1.054v2.006c.238-.431.55-.805.935-1.122a4.307 4.307 0 0 1 1.31-.765 4.311 4.311 0 0 1 1.512-.272c.487 0 .901.091 1.241.272.34.181.612.442.816.782.204.329.352.731.442 1.207.09.465.136.986.136 1.564V136Zm6.632-.425a6.23 6.23 0 0 0-.425.187 3.806 3.806 0 0 1-1.58.34c-.33 0-.641-.062-.936-.187a1.575 1.575 0 0 1-.68-.561c-.17-.261-.255-.578-.255-.952v-6.341h-1.224v-.918h1.224v-2.992h1.156v2.992h2.04v.918h-2.04v6.018c.023.317.136.555.34.714a1.2 1.2 0 0 0 .731.238c.318 0 .607-.051.867-.153.26-.113.42-.193.476-.238l.306.935Zm5.865-7.412c-.771.023-1.451.238-2.04.646-.578.408-.986.969-1.224 1.683V136h-1.156v-8.857h1.088v2.125a4.229 4.229 0 0 1 1.207-1.513c.51-.385 1.048-.601 1.615-.646.113-.011.21-.017.289-.017.09 0 .164.006.22.017v1.054Zm1.54 7.837v-8.857h1.156V136h-1.156Zm0-10.71v-1.7h1.156v1.7h-1.156Zm7.527 10.88a4.362 4.362 0 0 1-1.768-.357 4.503 4.503 0 0 1-1.411-1.003 4.902 4.902 0 0 1-.935-1.479 4.892 4.892 0 0 1-.323-1.785c0-.827.187-1.587.56-2.278a4.421 4.421 0 0 1 1.582-1.649c.668-.419 1.428-.629 2.278-.629.872 0 1.632.21 2.278.629a4.46 4.46 0 0 1 1.547 1.666 4.58 4.58 0 0 1 .56 2.244v.272a.803.803 0 0 1-.016.187H89.49c.056.635.232 1.201.527 1.7.306.487.697.878 1.173 1.173a3.095 3.095 0 0 0 1.58.425c.579 0 1.123-.147 1.633-.442.521-.295.884-.68 1.088-1.156l1.003.272a3.319 3.319 0 0 1-.833 1.139 4.11 4.11 0 0 1-1.326.799 4.698 4.698 0 0 1-1.615.272Zm-3.264-5.015H96c-.046-.646-.221-1.213-.527-1.7a3.142 3.142 0 0 0-1.173-1.139 3.036 3.036 0 0 0-1.581-.425c-.578 0-1.105.142-1.581.425a3.269 3.269 0 0 0-1.173 1.156c-.295.487-.465 1.048-.51 1.683Zm12.323 5.015a5.625 5.625 0 0 1-2.023-.357 4.248 4.248 0 0 1-1.615-1.088l.476-.816c.499.465.998.805 1.496 1.02a4.31 4.31 0 0 0 1.615.306c.692 0 1.253-.136 1.683-.408.431-.283.646-.686.646-1.207 0-.351-.107-.618-.323-.799-.204-.193-.504-.346-.901-.459-.385-.125-.85-.255-1.394-.391a12.219 12.219 0 0 1-1.547-.527c-.408-.193-.72-.431-.935-.714-.204-.295-.306-.674-.306-1.139 0-.578.142-1.054.425-1.428a2.675 2.675 0 0 1 1.19-.867 4.541 4.541 0 0 1 1.7-.306c.68 0 1.281.108 1.802.323.522.215.947.516 1.275.901l-.561.782a2.851 2.851 0 0 0-1.139-.799 3.692 3.692 0 0 0-1.445-.272c-.362 0-.708.051-1.037.153-.328.091-.6.249-.816.476-.204.215-.306.516-.306.901 0 .317.08.567.238.748.159.17.397.317.714.442.318.113.709.238 1.173.374.669.181 1.253.368 1.751.561.499.181.884.419 1.156.714.272.295.408.708.408 1.241 0 .827-.311 1.473-.935 1.938-.623.465-1.445.697-2.465.697Z" fill="#A5A5A5"/><g clip-path="url('#clip0_3_65')" fill="#000"><path d="M73.819 31h.351a9.627 9.627 0 0 0 7.428-3.284c4.065-4.669 3.381-12.675 3.326-13.441-.3-5.734-2.949-8.478-5.14-9.765A11.522 11.522 0 0 0 74.114 3h-.177a11.538 11.538 0 0 0-5.68 1.476C66.04 5.756 63.35 8.5 63.084 14.29c-.074.755-.739 8.768 3.326 13.441A9.647 9.647 0 0 0 73.819 31Zm-7.912-16.454v-.086c.358-7.715 5.72-8.542 8.019-8.542h.126c2.845.064 7.679 1.249 8.008 8.546a.216.216 0 0 0 0 .087c0 .075.739 7.394-2.587 11.245a6.946 6.946 0 0 1-5.425 2.3h-.107a6.813 6.813 0 0 1-5.414-2.3c-3.348-3.836-2.631-11.185-2.62-11.25Z"/><path d="M96 44.372v-.3c-.064-2.121-.2-7.084-4.851-8.67l-.109-.034a30.899 30.899 0 0 1-8.9-4.053 1.446 1.446 0 1 0-1.661 2.369 33.352 33.352 0 0 0 9.77 4.47c2.495.891 2.773 3.557 2.848 6.016a2.162 2.162 0 0 0 0 .267 19.478 19.478 0 0 1-.225 3.312c-1.71.974-8.515 4.384-18.863 4.384-10.348 0-17.155-3.423-18.898-4.408a18.426 18.426 0 0 1-.225-3.312v-.267c.075-2.444.353-5.113 2.848-6.016a33.666 33.666 0 0 0 9.77-4.47 1.447 1.447 0 1 0-1.661-2.369 30.563 30.563 0 0 1-8.868 4.064l-.109.034c-4.648 1.598-4.787 6.557-4.866 8.67.005.089.005.178 0 .267v.034a16.812 16.812 0 0 0 .545 4.854c.11.275.307.508.56.662.323.214 8.022 5.125 20.911 5.125 12.889 0 20.584-4.922 20.91-5.125.25-.161.445-.396.556-.673.403-1.577.577-3.204.518-4.831Z"/></g><defs><clipPath id="clip0_3_65"><path fill="#fff" transform="translate(52 3)" d="M0 0h44v52H0z"/></clipPath></defs></svg>