<svg width="176" height="155" fill="none" xmlns="http://www.w3.org/2000/svg"><circle cx="88.355" cy="31.355" r="31.355" fill="#08A6E4"/><path d="M20.945 93c0-.627.047-1.187.14-1.68.107-.493.274-.94.5-1.34.24-.413.554-.793.94-1.14.4-.36.9-.7 1.5-1.02a143.46 143.46 0 0 0 1.56-.84c.427-.24.767-.44 1.02-.6.254-.16.427-.313.52-.46a.92.92 0 0 0 .16-.52c0-.253-.06-.473-.18-.66a1.092 1.092 0 0 0-.52-.42c-.226-.107-.506-.16-.84-.16-.266 0-.52.033-.76.1a2.92 2.92 0 0 0-.7.3c-.213.133-.42.293-.62.48-.2.173-.4.373-.6.6l-2.02-2.36a5.37 5.37 0 0 1 .86-.68c.36-.227.767-.427 1.22-.6a8 8 0 0 1 1.48-.44 7.906 7.906 0 0 1 1.7-.18c.96 0 1.767.147 2.42.44.667.28 1.174.68 1.52 1.2.347.52.52 1.133.52 1.84 0 .453-.073.853-.22 1.2a3.237 3.237 0 0 1-.54.9 4.465 4.465 0 0 1-.78.72c-.28.213-.56.407-.84.58-.32.16-.62.32-.9.48-.28.147-.54.293-.78.44a5.93 5.93 0 0 0-.68.44c-.2.147-.393.313-.58.5h5.54V93h-10.04Zm28.222-5.86c0 1.173-.227 2.22-.68 3.14-.453.907-1.073 1.62-1.86 2.14-.787.52-1.68.78-2.68.78-.987 0-1.88-.26-2.68-.78-.787-.52-1.407-1.233-1.86-2.14-.453-.92-.68-1.967-.68-3.14s.227-2.213.68-3.12c.453-.92 1.073-1.64 1.86-2.16.8-.533 1.693-.8 2.68-.8 1 0 1.893.267 2.68.8.787.52 1.407 1.24 1.86 2.16.453.907.68 1.947.68 3.12Zm-3.22 0c0-.627-.087-1.173-.26-1.64-.173-.467-.413-.833-.72-1.1a1.47 1.47 0 0 0-1.02-.4c-.4 0-.753.133-1.06.4-.307.267-.547.633-.72 1.1-.16.467-.24 1.013-.24 1.64s.08 1.173.24 1.64c.173.467.413.833.72 1.1.307.253.66.38 1.06.38.387 0 .727-.127 1.02-.38.307-.267.547-.633.72-1.1.173-.467.26-1.013.26-1.64Zm21.465 0c0 1.173-.227 2.22-.68 3.14-.453.907-1.073 1.62-1.86 2.14-.787.52-1.68.78-2.68.78-.986 0-1.88-.26-2.68-.78-.787-.52-1.407-1.233-1.86-2.14-.453-.92-.68-1.967-.68-3.14s.227-2.213.68-3.12c.453-.92 1.073-1.64 1.86-2.16.8-.533 1.694-.8 2.68-.8 1 0 1.893.267 2.68.8.787.52 1.407 1.24 1.86 2.16.454.907.68 1.947.68 3.12Zm-3.22 0c0-.627-.086-1.173-.26-1.64-.173-.467-.413-.833-.72-1.1a1.47 1.47 0 0 0-1.02-.4c-.4 0-.753.133-1.06.4-.306.267-.546.633-.72 1.1-.16.467-.24 1.013-.24 1.64s.08 1.173.24 1.64c.174.467.413.833.72 1.1.307.253.66.38 1.06.38.387 0 .727-.127 1.02-.38.307-.267.547-.633.72-1.1.174-.467.26-1.013.26-1.64Zm21.465 0c0 1.173-.226 2.22-.68 3.14-.453.907-1.073 1.62-1.86 2.14-.786.52-1.68.78-2.68.78-.986 0-1.88-.26-2.68-.78-.786-.52-1.406-1.233-1.86-2.14-.453-.92-.68-1.967-.68-3.14s.227-2.213.68-3.12c.454-.92 1.074-1.64 1.86-2.16.8-.533 1.694-.8 2.68-.8 1 0 1.894.267 2.68.8.787.52 1.407 1.24 1.86 2.16.454.907.68 1.947.68 3.12Zm-3.22 0c0-.627-.086-1.173-.26-1.64-.173-.467-.413-.833-.72-1.1a1.47 1.47 0 0 0-1.02-.4c-.4 0-.753.133-1.06.4-.306.267-.546.633-.72 1.1-.16.467-.24 1.013-.24 1.64s.08 1.173.24 1.64c.174.467.414.833.72 1.1.307.253.66.38 1.06.38.387 0 .727-.127 1.02-.38.307-.267.547-.633.72-1.1.174-.467.26-1.013.26-1.64Zm21.465 0c0 1.173-.226 2.22-.68 3.14-.453.907-1.073 1.62-1.86 2.14-.786.52-1.68.78-2.68.78-.986 0-1.88-.26-2.68-.78-.786-.52-1.406-1.233-1.86-2.14-.453-.92-.68-1.967-.68-3.14s.227-2.213.68-3.12c.454-.92 1.074-1.64 1.86-2.16.8-.533 1.694-.8 2.68-.8 1 0 1.894.267 2.68.8.787.52 1.407 1.24 1.86 2.16.454.907.68 1.947.68 3.12Zm-3.22 0c0-.627-.086-1.173-.26-1.64-.173-.467-.413-.833-.72-1.1a1.47 1.47 0 0 0-1.02-.4c-.4 0-.753.133-1.06.4-.306.267-.546.633-.72 1.1-.16.467-.24 1.013-.24 1.64s.08 1.173.24 1.64c.174.467.414.833.72 1.1.307.253.66.38 1.06.38.387 0 .727-.127 1.02-.38.307-.267.547-.633.72-1.1.174-.467.26-1.013.26-1.64Zm21.466 0c0 1.173-.227 2.22-.68 3.14-.454.907-1.074 1.62-1.86 2.14-.787.52-1.68.78-2.68.78-.987 0-1.88-.26-2.68-.78-.787-.52-1.407-1.233-1.86-2.14-.454-.92-.68-1.967-.68-3.14s.226-2.213.68-3.12c.453-.92 1.073-1.64 1.86-2.16.8-.533 1.693-.8 2.68-.8 1 0 1.893.267 2.68.8.786.52 1.406 1.24 1.86 2.16.453.907.68 1.947.68 3.12Zm-3.22 0c0-.627-.087-1.173-.26-1.64-.174-.467-.414-.833-.72-1.1a1.472 1.472 0 0 0-1.02-.4c-.4 0-.754.133-1.06.4-.307.267-.547.633-.72 1.1-.16.467-.24 1.013-.24 1.64s.08 1.173.24 1.64c.173.467.413.833.72 1.1.306.253.66.38 1.06.38.386 0 .726-.127 1.02-.38.306-.267.546-.633.72-1.1.173-.467.26-1.013.26-1.64Zm21.465 0c0 1.173-.227 2.22-.68 3.14-.454.907-1.074 1.62-1.86 2.14-.787.52-1.68.78-2.68.78-.987 0-1.88-.26-2.68-.78-.787-.52-1.407-1.233-1.86-2.14-.454-.92-.68-1.967-.68-3.14s.226-2.213.68-3.12c.453-.92 1.073-1.64 1.86-2.16.8-.533 1.693-.8 2.68-.8 1 0 1.893.267 2.68.8.786.52 1.406 1.24 1.86 2.16.453.907.68 1.947.68 3.12Zm-3.22 0c0-.627-.087-1.173-.26-1.64-.174-.467-.414-.833-.72-1.1a1.472 1.472 0 0 0-1.02-.4c-.4 0-.754.133-1.06.4-.307.267-.547.633-.72 1.1-.16.467-.24 1.013-.24 1.64s.08 1.173.24 1.64c.173.467.413.833.72 1.1.306.253.66.38 1.06.38.386 0 .726-.127 1.02-.38.306-.267.546-.633.72-1.1.173-.467.26-1.013.26-1.64Zm17.685-2.52v2.56h-1.9v2.08h-2.88v-2.08h-1.88v-2.56h1.88v-2.08h2.88v2.08h1.9Z" fill="#000"/><path d="M36.897 132.16a5.294 5.294 0 0 1-1.904-.336 3.992 3.992 0 0 1-1.52-1.024l.448-.768c.47.437.939.757 1.408.96.48.192.987.288 1.52.288.65 0 1.179-.128 1.584-.384.405-.267.608-.645.608-1.136 0-.331-.101-.581-.304-.752-.192-.181-.475-.325-.848-.432-.363-.117-.8-.24-1.312-.368a11.387 11.387 0 0 1-1.456-.496c-.384-.181-.677-.405-.88-.672-.192-.277-.288-.635-.288-1.072 0-.544.133-.992.4-1.344.277-.363.65-.635 1.12-.816a4.273 4.273 0 0 1 1.6-.288c.64 0 1.205.101 1.696.304a3.1 3.1 0 0 1 1.2.848l-.528.736a2.691 2.691 0 0 0-1.072-.752 3.466 3.466 0 0 0-1.36-.256c-.341 0-.667.048-.976.144-.31.085-.565.235-.768.448-.192.203-.288.485-.288.848 0 .299.075.533.224.704.15.16.373.299.672.416.299.107.667.224 1.104.352.63.171 1.179.347 1.648.528.47.171.832.395 1.088.672.256.277.384.667.384 1.168 0 .779-.293 1.387-.88 1.824-.587.437-1.36.656-2.32.656Zm8.598 0a4.106 4.106 0 0 1-1.664-.336 4.238 4.238 0 0 1-1.328-.944 4.596 4.596 0 0 1-.88-1.392 4.608 4.608 0 0 1-.304-1.68c0-.779.176-1.493.528-2.144a4.156 4.156 0 0 1 1.488-1.552c.63-.395 1.344-.592 2.144-.592.822 0 1.536.197 2.144.592a4.198 4.198 0 0 1 1.456 1.568 4.31 4.31 0 0 1 .528 2.112v.256a.758.758 0 0 1-.016.176h-7.136c.054.597.219 1.131.496 1.6.288.459.656.827 1.104 1.104.459.267.955.4 1.488.4.544 0 1.056-.139 1.536-.416.491-.277.832-.64 1.024-1.088l.944.256c-.17.395-.432.752-.784 1.072-.352.32-.768.571-1.248.752-.469.171-.976.256-1.52.256Zm-3.072-4.72h6.16c-.042-.608-.208-1.141-.496-1.6a2.953 2.953 0 0 0-1.104-1.072 2.851 2.851 0 0 0-1.488-.4c-.544 0-1.04.133-1.488.4a3.082 3.082 0 0 0-1.104 1.088 3.499 3.499 0 0 0-.48 1.584Zm12.463 4.72a4.106 4.106 0 0 1-1.664-.336 4.239 4.239 0 0 1-1.328-.944 4.598 4.598 0 0 1-.88-1.392 4.61 4.61 0 0 1-.304-1.68c0-.779.176-1.493.528-2.144a4.156 4.156 0 0 1 1.488-1.552c.63-.395 1.344-.592 2.144-.592.821 0 1.536.197 2.144.592a4.198 4.198 0 0 1 1.456 1.568 4.31 4.31 0 0 1 .528 2.112v.256a.758.758 0 0 1-.016.176h-7.136a3.76 3.76 0 0 0 .496 1.6c.288.459.656.827 1.104 1.104.459.267.955.4 1.488.4.544 0 1.056-.139 1.536-.416.49-.277.832-.64 1.024-1.088l.944.256c-.17.395-.432.752-.784 1.072-.352.32-.768.571-1.248.752-.47.171-.976.256-1.52.256Zm-3.072-4.72h6.16c-.043-.608-.208-1.141-.496-1.6a2.953 2.953 0 0 0-1.104-1.072 2.851 2.851 0 0 0-1.488-.4c-.544 0-1.04.133-1.488.4a3.082 3.082 0 0 0-1.104 1.088 3.499 3.499 0 0 0-.48 1.584Zm15.87 4.56h-1.087v-4.656c0-.981-.144-1.696-.432-2.144-.288-.459-.742-.688-1.36-.688-.427 0-.848.107-1.264.32a3.52 3.52 0 0 0-1.104.848c-.31.352-.534.757-.672 1.216V132h-1.088v-8.336h.992v1.888c.224-.405.517-.757.88-1.056a4.08 4.08 0 0 1 1.232-.72 4.043 4.043 0 0 1 1.424-.256c.458 0 .848.085 1.168.256.32.171.576.416.768.736.192.309.33.688.416 1.136.085.437.128.928.128 1.472V132Zm10.655.16a3.343 3.343 0 0 1-1.872-.544 4.213 4.213 0 0 1-1.296-1.344v5.136h-1.088v-11.744h.976v1.616c.33-.523.773-.944 1.328-1.264a3.408 3.408 0 0 1 1.776-.496c.576 0 1.104.123 1.584.368.48.235.896.555 1.248.96.352.405.624.869.816 1.392.202.512.304 1.045.304 1.6 0 .779-.16 1.499-.48 2.16a3.93 3.93 0 0 1-1.312 1.568c-.566.395-1.227.592-1.984.592Zm-.304-.96c.459 0 .87-.091 1.232-.272.362-.192.672-.448.928-.768.267-.32.47-.677.608-1.072.139-.405.208-.821.208-1.248 0-.448-.08-.875-.24-1.28a3.158 3.158 0 0 0-.656-1.072 3.34 3.34 0 0 0-.992-.736 2.75 2.75 0 0 0-1.216-.272c-.278 0-.566.053-.864.16a3.402 3.402 0 0 0-.864.464 3.03 3.03 0 0 0-.672.656 1.758 1.758 0 0 0-.336.784v2.56c.17.395.4.752.688 1.072.288.309.619.56.992.752.384.181.778.272 1.184.272Zm10.083-6.576c-.725.021-1.365.224-1.92.608-.544.384-.928.912-1.152 1.584V132h-1.088v-8.336h1.024v2a3.98 3.98 0 0 1 1.136-1.424c.48-.363.987-.565 1.52-.608.106-.011.197-.016.272-.016.085 0 .154.005.208.016v.992Zm4.751 7.536a4.106 4.106 0 0 1-1.664-.336 4.294 4.294 0 0 1-1.312-.944 4.563 4.563 0 0 1-.848-1.376 4.519 4.519 0 0 1-.304-1.648c0-.597.102-1.152.304-1.664a4.18 4.18 0 0 1 .864-1.376 3.97 3.97 0 0 1 1.312-.944 3.94 3.94 0 0 1 1.664-.352c.597 0 1.147.117 1.648.352a3.97 3.97 0 0 1 1.312.944c.374.395.662.853.864 1.376.203.512.304 1.067.304 1.664 0 .576-.101 1.125-.304 1.648-.203.512-.49.971-.864 1.376-.362.395-.8.709-1.312.944a4.033 4.033 0 0 1-1.664.336Zm-3.024-4.288c0 .619.133 1.184.4 1.696a3.33 3.33 0 0 0 1.104 1.2c.459.288.965.432 1.52.432s1.061-.149 1.52-.448a3.292 3.292 0 0 0 1.104-1.216 3.565 3.565 0 0 0 .416-1.696c0-.619-.139-1.184-.416-1.696a3.292 3.292 0 0 0-1.104-1.216 2.725 2.725 0 0 0-1.52-.448c-.555 0-1.061.155-1.52.464-.448.309-.81.72-1.088 1.232a3.445 3.445 0 0 0-.416 1.696Zm8.428-.016c0-.789.16-1.509.48-2.16a4.108 4.108 0 0 1 1.36-1.584 3.397 3.397 0 0 1 1.968-.592c.693 0 1.312.187 1.856.56a4.06 4.06 0 0 1 1.296 1.328v-5.088h1.088v10.368c0 .149.032.261.096.336.064.064.16.101.288.112V132c-.214.032-.379.043-.496.032a.874.874 0 0 1-.592-.272c-.171-.171-.256-.357-.256-.56v-.816a3.65 3.65 0 0 1-1.344 1.296c-.566.32-1.152.48-1.76.48-.576 0-1.11-.117-1.6-.352a4.11 4.11 0 0 1-1.264-.96 4.74 4.74 0 0 1-.832-1.376 4.65 4.65 0 0 1-.288-1.616Zm6.96 1.28v-2.576a2.819 2.819 0 0 0-.672-1.04 3.49 3.49 0 0 0-1.056-.752 2.556 2.556 0 0 0-1.152-.288c-.448 0-.854.096-1.216.288a2.902 2.902 0 0 0-.944.752c-.256.32-.453.683-.592 1.088a3.826 3.826 0 0 0 .016 2.528c.16.405.384.768.672 1.088.288.309.618.549.992.72.373.171.778.256 1.216.256.277 0 .565-.053.864-.16.298-.107.581-.251.848-.432.277-.192.506-.416.688-.672.181-.256.293-.523.336-.8Zm3.473-.576v-4.896h1.088v4.704c0 .949.16 1.659.48 2.128.331.469.816.704 1.456.704.427 0 .837-.091 1.232-.272a3.406 3.406 0 0 0 1.072-.8c.309-.352.544-.757.704-1.216v-5.248h1.088v7.024c0 .149.032.261.096.336.064.064.16.101.288.112V132a3.704 3.704 0 0 1-.304.016 1.432 1.432 0 0 1-.208.016.939.939 0 0 1-.56-.256.803.803 0 0 1-.24-.544l-.032-1.12a3.958 3.958 0 0 1-1.488 1.504 3.915 3.915 0 0 1-2.016.544c-.875 0-1.536-.304-1.984-.912-.448-.608-.672-1.504-.672-2.688Zm13.196 3.6a4.146 4.146 0 0 1-1.68-.336 4.377 4.377 0 0 1-1.328-.96 4.596 4.596 0 0 1-.88-1.392 4.555 4.555 0 0 1-.304-1.664c0-.789.176-1.509.528-2.16a4.036 4.036 0 0 1 1.472-1.552c.629-.384 1.355-.576 2.176-.576.779 0 1.467.181 2.064.544.597.352 1.04.832 1.328 1.44l-1.056.336a2.467 2.467 0 0 0-.992-.992 2.692 2.692 0 0 0-1.392-.368c-.555 0-1.061.144-1.52.432a3.19 3.19 0 0 0-1.104 1.184c-.267.501-.4 1.072-.4 1.712 0 .629.139 1.2.416 1.712.277.512.645.923 1.104 1.232.459.299.965.448 1.52.448.363 0 .709-.064 1.04-.192.341-.128.635-.299.88-.512.256-.224.427-.464.512-.72l1.072.32c-.149.395-.4.752-.752 1.072a3.862 3.862 0 0 1-1.216.736 4.229 4.229 0 0 1-1.488.256Zm9.165-.56a6.5 6.5 0 0 0-.4.176 3.622 3.622 0 0 1-1.488.32c-.309 0-.602-.059-.88-.176a1.478 1.478 0 0 1-.64-.528c-.16-.245-.24-.544-.24-.896v-5.968h-1.152v-.864h1.152v-2.816h1.088v2.816h1.92v.864h-1.92v5.664c.022.299.128.523.32.672.203.149.432.224.688.224.299 0 .571-.048.816-.144.246-.107.395-.181.448-.224l.288.88Zm4.096.56a5.29 5.29 0 0 1-1.904-.336 3.984 3.984 0 0 1-1.52-1.024l.448-.768c.469.437.938.757 1.408.96.48.192.986.288 1.52.288.65 0 1.178-.128 1.584-.384.405-.267.608-.645.608-1.136 0-.331-.102-.581-.304-.752-.192-.181-.475-.325-.848-.432-.363-.117-.8-.24-1.312-.368a11.349 11.349 0 0 1-1.456-.496c-.384-.181-.678-.405-.88-.672-.192-.277-.288-.635-.288-1.072 0-.544.133-.992.4-1.344.277-.363.65-.635 1.12-.816a4.272 4.272 0 0 1 1.6-.288c.64 0 1.205.101 1.696.304.49.203.89.485 1.2.848l-.528.736a2.694 2.694 0 0 0-1.072-.752 3.47 3.47 0 0 0-1.36-.256 3.27 3.27 0 0 0-.976.144c-.31.085-.566.235-.768.448-.192.203-.288.485-.288.848 0 .299.074.533.224.704.149.16.373.299.672.416.298.107.666.224 1.104.352a17.14 17.14 0 0 1 1.648.528c.469.171.832.395 1.088.672.256.277.384.667.384 1.168 0 .779-.294 1.387-.88 1.824-.587.437-1.36.656-2.32.656Zm-78.277 19a4.106 4.106 0 0 1-1.664-.336 4.239 4.239 0 0 1-1.328-.944 4.598 4.598 0 0 1-.88-1.392 4.61 4.61 0 0 1-.304-1.68c0-.779.176-1.493.528-2.144a4.156 4.156 0 0 1 1.488-1.552c.63-.395 1.344-.592 2.144-.592.821 0 1.536.197 2.144.592a4.198 4.198 0 0 1 1.456 1.568 4.31 4.31 0 0 1 .528 2.112v.256a.758.758 0 0 1-.016.176h-7.136a3.76 3.76 0 0 0 .496 1.6c.288.459.656.827 1.104 1.104.459.267.955.4 1.488.4.544 0 1.056-.139 1.536-.416.49-.277.832-.64 1.024-1.088l.944.256c-.17.395-.432.752-.784 1.072-.352.32-.768.571-1.248.752-.47.171-.976.256-1.52.256Zm-3.072-4.72h6.16c-.043-.608-.208-1.141-.496-1.6a2.953 2.953 0 0 0-1.104-1.072 2.851 2.851 0 0 0-1.488-.4c-.544 0-1.04.133-1.488.4a3.082 3.082 0 0 0-1.104 1.088 3.499 3.499 0 0 0-.48 1.584ZM64.938 151l-3.376-8.336h1.136l2.848 7.248 2.864-7.248h1.072L66.106 151h-1.168Zm9.37.16a4.106 4.106 0 0 1-1.664-.336 4.238 4.238 0 0 1-1.328-.944 4.596 4.596 0 0 1-.88-1.392 4.608 4.608 0 0 1-.304-1.68c0-.779.176-1.493.528-2.144a4.156 4.156 0 0 1 1.488-1.552c.63-.395 1.344-.592 2.144-.592.821 0 1.536.197 2.144.592a4.198 4.198 0 0 1 1.456 1.568 4.31 4.31 0 0 1 .528 2.112v.256a.758.758 0 0 1-.016.176h-7.136c.053.597.219 1.131.496 1.6.288.459.656.827 1.104 1.104.459.267.955.4 1.488.4.544 0 1.056-.139 1.536-.416.49-.277.832-.64 1.024-1.088l.944.256c-.17.395-.432.752-.784 1.072-.352.32-.768.571-1.248.752-.47.171-.976.256-1.52.256Zm-3.072-4.72h6.16c-.043-.608-.208-1.141-.496-1.6a2.953 2.953 0 0 0-1.104-1.072 2.851 2.851 0 0 0-1.488-.4c-.544 0-1.04.133-1.488.4a3.082 3.082 0 0 0-1.104 1.088 3.499 3.499 0 0 0-.48 1.584Zm13.022-2.816c-.725.021-1.365.224-1.92.608-.544.384-.928.912-1.152 1.584V151h-1.088v-8.336h1.024v2a3.98 3.98 0 0 1 1.136-1.424c.48-.363.987-.565 1.52-.608a2.7 2.7 0 0 1 .272-.016c.086 0 .155.005.208.016v.992Zm1.93 9.936c.15.011.293.016.432.016a.84.84 0 0 0 .304-.016.652.652 0 0 0 .368-.224c.117-.128.256-.373.416-.736.16-.363.384-.896.672-1.6l-3.632-8.336H85.9l3.056 7.216 2.816-7.216h1.088l-4.32 10.752a1.782 1.782 0 0 1-.336.56 1.46 1.46 0 0 1-.56.416c-.214.107-.48.165-.8.176a1.403 1.403 0 0 1-.304 0c-.096 0-.214-.011-.352-.032v-.976Zm11.272-6.704c0-.789.16-1.509.48-2.16a4.11 4.11 0 0 1 1.36-1.584 3.396 3.396 0 0 1 1.968-.592c.694 0 1.312.187 1.856.56a4.04 4.04 0 0 1 1.296 1.328v-5.088h1.088v10.368c0 .149.032.261.096.336.064.064.16.101.288.112V151c-.213.032-.378.043-.496.032a.876.876 0 0 1-.592-.272c-.17-.171-.256-.357-.256-.56v-.816c-.33.544-.778.976-1.344 1.296-.565.32-1.152.48-1.76.48a3.654 3.654 0 0 1-1.6-.352 4.109 4.109 0 0 1-1.264-.96 4.74 4.74 0 0 1-.832-1.376 4.65 4.65 0 0 1-.288-1.616Zm6.96 1.28v-2.576a2.794 2.794 0 0 0-.672-1.04 3.465 3.465 0 0 0-1.056-.752 2.556 2.556 0 0 0-1.152-.288 2.56 2.56 0 0 0-1.216.288 2.914 2.914 0 0 0-.944.752c-.256.32-.453.683-.592 1.088a3.826 3.826 0 0 0 .016 2.528c.16.405.384.768.672 1.088.288.309.619.549.992.72.374.171.779.256 1.216.256.278 0 .566-.053.864-.16.299-.107.582-.251.848-.432.278-.192.507-.416.688-.672.182-.256.294-.523.336-.8Zm2.881.464c0-.523.15-.971.448-1.344.299-.384.71-.677 1.232-.88.534-.213 1.147-.32 1.84-.32.406 0 .827.032 1.264.096.438.064.827.16 1.168.288v-.704c0-.704-.208-1.264-.624-1.68-.416-.416-.992-.624-1.728-.624-.448 0-.89.085-1.328.256-.426.16-.874.4-1.344.72l-.416-.768a6.784 6.784 0 0 1 1.6-.832 4.608 4.608 0 0 1 1.6-.288c1.024 0 1.835.293 2.432.88.598.587.896 1.397.896 2.432v3.856c0 .149.032.261.096.336.064.064.166.101.304.112V151a9.543 9.543 0 0 0-.304.032.548.548 0 0 1-.192 0c-.266-.011-.469-.096-.608-.256a.856.856 0 0 1-.224-.512l-.016-.608c-.373.48-.858.853-1.456 1.12a4.588 4.588 0 0 1-1.824.384 3.15 3.15 0 0 1-1.456-.336 2.745 2.745 0 0 1-1.008-.928 2.498 2.498 0 0 1-.352-1.296Zm5.584.64c.118-.149.208-.293.272-.432a.898.898 0 0 0 .096-.368v-1.216a6.594 6.594 0 0 0-2.304-.432c-.778 0-1.408.155-1.888.464-.48.309-.72.731-.72 1.264 0 .309.08.603.24.88.16.267.395.491.704.672.31.171.672.256 1.088.256.523 0 1.008-.101 1.456-.304.459-.203.811-.464 1.056-.784Zm4.037 4.32c.15.011.294.016.432.016a.84.84 0 0 0 .304-.016.651.651 0 0 0 .368-.224c.118-.128.256-.373.416-.736.16-.363.384-.896.672-1.6l-3.632-8.336h1.152l3.056 7.216 2.816-7.216h1.088l-4.32 10.752a1.757 1.757 0 0 1-.336.56c-.149.181-.336.32-.56.416-.213.107-.48.165-.8.176a1.403 1.403 0 0 1-.304 0c-.096 0-.213-.011-.352-.032v-.976Z" fill="#A5A5A5"/><g clip-path="url('#clip0_3_66')" stroke="#000" stroke-width="3.5" stroke-miterlimit="10"><path d="M140.996 30.5S128.175 47 110.496 47c-17.679 0-30.5-16.5-30.5-16.5S92.817 14 110.496 14c17.679 0 30.5 16.5 30.5 16.5Z"/><path d="M110.496 42.995c6.904 0 12.5-5.596 12.5-12.5s-5.596-12.5-12.5-12.5-12.5 5.596-12.5 12.5 5.596 12.5 12.5 12.5Z"/><path d="M112.504 34.21a4.5 4.5 0 1 1 2.118-3.825v.127" stroke-linecap="round"/></g><defs><clipPath id="clip0_3_66"><path fill="#fff" transform="translate(77.78 12.25)" d="M0 0h65.432v36.5H0z"/></clipPath></defs></svg>