<svg width="163" height="168" fill="none" xmlns="http://www.w3.org/2000/svg"><circle cx="82.015" cy="31.355" r="31.355" fill="#55DFB4"/><path d="M42.166 93.06v2.88h-8.64v-2.88h2.84v-5.1c-.12.16-.307.32-.56.48-.254.16-.54.313-.86.46-.307.147-.62.267-.94.36-.32.08-.614.12-.88.12v-2.96c.226 0 .506-.067.84-.2a7.338 7.338 0 0 0 1-.54c.346-.213.646-.427.9-.64.266-.213.433-.387.5-.52h3.26v8.54h2.54Zm17.791-2.98c0 1.173-.226 2.22-.68 3.14-.453.907-1.073 1.62-1.86 2.14-.786.52-1.68.78-2.68.78-.986 0-1.88-.26-2.68-.78-.786-.52-1.406-1.233-1.86-2.14-.453-.92-.68-1.967-.68-3.14s.227-2.213.68-3.12c.454-.92 1.074-1.64 1.86-2.16.8-.533 1.694-.8 2.68-.8 1 0 1.894.267 2.68.8.787.52 1.407 1.24 1.86 2.16.454.907.68 1.947.68 3.12Zm-3.22 0c0-.627-.086-1.173-.26-1.64-.173-.467-.413-.833-.72-1.1a1.47 1.47 0 0 0-1.02-.4c-.4 0-.753.133-1.06.4-.306.267-.546.633-.72 1.1-.16.467-.24 1.013-.24 1.64s.08 1.173.24 1.64c.174.467.414.833.72 1.1.307.253.66.38 1.06.38.387 0 .727-.127 1.02-.38.307-.267.547-.633.72-1.1.174-.467.26-1.013.26-1.64Zm21.465 0c0 1.173-.226 2.22-.68 3.14-.453.907-1.073 1.62-1.86 2.14-.786.52-1.68.78-2.68.78-.986 0-1.88-.26-2.68-.78-.786-.52-1.406-1.233-1.86-2.14-.453-.92-.68-1.967-.68-3.14s.227-2.213.68-3.12c.454-.92 1.074-1.64 1.86-2.16.8-.533 1.694-.8 2.68-.8 1 0 1.894.267 2.68.8.787.52 1.407 1.24 1.86 2.16.454.907.68 1.947.68 3.12Zm-3.22 0c0-.627-.086-1.173-.26-1.64-.173-.467-.413-.833-.72-1.1a1.47 1.47 0 0 0-1.02-.4c-.4 0-.753.133-1.06.4-.306.267-.546.633-.72 1.1-.16.467-.24 1.013-.24 1.64s.08 1.173.24 1.64c.174.467.414.833.72 1.1.307.253.66.38 1.06.38.387 0 .727-.127 1.02-.38.307-.267.547-.633.72-1.1.174-.467.26-1.013.26-1.64Zm21.466 0c0 1.173-.227 2.22-.68 3.14-.454.907-1.074 1.62-1.86 2.14-.787.52-1.68.78-2.68.78-.987 0-1.88-.26-2.68-.78-.787-.52-1.407-1.233-1.86-2.14-.454-.92-.68-1.967-.68-3.14s.226-2.213.68-3.12c.453-.92 1.073-1.64 1.86-2.16.8-.533 1.693-.8 2.68-.8 1 0 1.893.267 2.68.8.786.52 1.406 1.24 1.86 2.16.453.907.68 1.947.68 3.12Zm-3.22 0c0-.627-.087-1.173-.26-1.64-.174-.467-.414-.833-.72-1.1a1.47 1.47 0 0 0-1.02-.4c-.4 0-.754.133-1.06.4-.307.267-.547.633-.72 1.1-.16.467-.24 1.013-.24 1.64s.08 1.173.24 1.64c.173.467.413.833.72 1.1.306.253.66.38 1.06.38.386 0 .726-.127 1.02-.38.306-.267.546-.633.72-1.1.173-.467.26-1.013.26-1.64Zm21.465 0c0 1.173-.227 2.22-.68 3.14-.454.907-1.074 1.62-1.86 2.14-.787.52-1.68.78-2.68.78-.987 0-1.88-.26-2.68-.78-.787-.52-1.407-1.233-1.86-2.14-.454-.92-.68-1.967-.68-3.14s.226-2.213.68-3.12c.453-.92 1.073-1.64 1.86-2.16.8-.533 1.693-.8 2.68-.8 1 0 1.893.267 2.68.8.786.52 1.406 1.24 1.86 2.16.453.907.68 1.947.68 3.12Zm-3.22 0c0-.627-.087-1.173-.26-1.64-.174-.467-.414-.833-.72-1.1a1.473 1.473 0 0 0-1.02-.4c-.4 0-.754.133-1.06.4-.307.267-.547.633-.72 1.1-.16.467-.24 1.013-.24 1.64s.08 1.173.24 1.64c.173.467.413.833.72 1.1.306.253.66.38 1.06.38.386 0 .726-.127 1.02-.38.306-.267.546-.633.72-1.1.173-.467.26-1.013.26-1.64Zm17.685-2.52v2.56h-1.9v2.08h-2.88v-2.08h-1.88v-2.56h1.88v-2.08h2.88v2.08h1.9Z" fill="#000"/><path d="M33.045 133.45c0-.555.159-1.031.476-1.428.317-.408.754-.72 1.309-.935.567-.227 1.218-.34 1.955-.34.43 0 .878.034 1.343.102.465.068.878.17 1.24.306v-.748c0-.748-.22-1.343-.662-1.785-.442-.442-1.054-.663-1.836-.663a3.86 3.86 0 0 0-1.411.272c-.453.17-.93.425-1.428.765l-.442-.816a7.195 7.195 0 0 1 1.7-.884 4.895 4.895 0 0 1 1.7-.306c1.088 0 1.95.312 2.584.935.635.623.952 1.485.952 2.584v4.097c0 .159.034.278.102.357.068.068.176.108.323.119V136a9.82 9.82 0 0 0-.323.034.617.617 0 0 1-.204 0c-.283-.011-.499-.102-.646-.272a.902.902 0 0 1-.238-.544l-.017-.646c-.397.51-.912.907-1.547 1.19a4.878 4.878 0 0 1-1.938.408 3.343 3.343 0 0 1-1.547-.357 2.9 2.9 0 0 1-1.071-.986 2.644 2.644 0 0 1-.374-1.377Zm5.933.68c.125-.159.22-.312.289-.459a.954.954 0 0 0 .102-.391v-1.292a7.033 7.033 0 0 0-2.448-.459c-.827 0-1.496.164-2.006.493-.51.329-.765.776-.765 1.343 0 .329.085.64.255.935.17.283.42.521.748.714.329.181.714.272 1.156.272.555 0 1.07-.108 1.547-.323.487-.215.861-.493 1.122-.833Zm3.45-2.533c0-.839.17-1.604.51-2.295a4.355 4.355 0 0 1 1.445-1.683 3.614 3.614 0 0 1 2.09-.629 3.4 3.4 0 0 1 1.973.595 4.3 4.3 0 0 1 1.377 1.411v-5.406h1.156v11.016c0 .159.034.278.102.357.068.068.17.108.306.119V136a2.379 2.379 0 0 1-.527.034.93.93 0 0 1-.63-.289c-.18-.181-.271-.38-.271-.595v-.867a3.874 3.874 0 0 1-1.428 1.377c-.601.34-1.224.51-1.87.51a3.893 3.893 0 0 1-1.7-.374 4.343 4.343 0 0 1-1.343-1.02 5.044 5.044 0 0 1-.884-1.462 4.942 4.942 0 0 1-.306-1.717Zm7.395 1.36v-2.737a2.993 2.993 0 0 0-.714-1.105 3.703 3.703 0 0 0-1.122-.799 2.716 2.716 0 0 0-1.224-.306c-.476 0-.907.102-1.292.306-.386.193-.72.459-1.003.799a3.8 3.8 0 0 0-.63 1.156 4.07 4.07 0 0 0-.22 1.326c0 .476.079.929.238 1.36.17.431.408.816.714 1.156a3.3 3.3 0 0 0 1.054.765c.396.181.827.272 1.292.272.294 0 .6-.057.918-.17.317-.113.617-.266.9-.459.295-.204.539-.442.732-.714.192-.272.311-.555.357-.85Zm3.18-1.36c0-.839.17-1.604.51-2.295a4.355 4.355 0 0 1 1.445-1.683 3.614 3.614 0 0 1 2.09-.629 3.4 3.4 0 0 1 1.973.595 4.3 4.3 0 0 1 1.377 1.411v-5.406h1.156v11.016c0 .159.034.278.102.357.068.068.17.108.306.119V136a2.379 2.379 0 0 1-.527.034.93.93 0 0 1-.63-.289c-.18-.181-.271-.38-.271-.595v-.867a3.874 3.874 0 0 1-1.428 1.377c-.6.34-1.224.51-1.87.51a3.893 3.893 0 0 1-1.7-.374 4.343 4.343 0 0 1-1.343-1.02 5.044 5.044 0 0 1-.884-1.462 4.942 4.942 0 0 1-.306-1.717Zm7.395 1.36v-2.737a2.993 2.993 0 0 0-.714-1.105 3.703 3.703 0 0 0-1.122-.799 2.716 2.716 0 0 0-1.224-.306c-.476 0-.907.102-1.292.306-.386.193-.72.459-1.003.799a3.8 3.8 0 0 0-.63 1.156 4.07 4.07 0 0 0-.22 1.326c0 .476.08.929.238 1.36.17.431.408.816.714 1.156a3.3 3.3 0 0 0 1.054.765c.396.181.827.272 1.292.272.294 0 .6-.057.918-.17.317-.113.617-.266.9-.459.295-.204.54-.442.732-.714.192-.272.311-.555.357-.85Zm7.6 3.213a4.362 4.362 0 0 1-1.768-.357 4.503 4.503 0 0 1-1.411-1.003 4.902 4.902 0 0 1-.935-1.479 4.892 4.892 0 0 1-.323-1.785c0-.827.187-1.587.56-2.278a4.421 4.421 0 0 1 1.582-1.649c.669-.419 1.428-.629 2.278-.629.873 0 1.632.21 2.278.629a4.461 4.461 0 0 1 1.547 1.666c.374.68.56 1.428.56 2.244v.272a.81.81 0 0 1-.016.187h-7.582c.057.635.232 1.201.527 1.7.306.487.697.878 1.173 1.173a3.095 3.095 0 0 0 1.58.425c.579 0 1.123-.147 1.633-.442.521-.295.884-.68 1.088-1.156l1.003.272a3.319 3.319 0 0 1-.833 1.139 4.11 4.11 0 0 1-1.326.799 4.698 4.698 0 0 1-1.615.272Zm-3.264-5.015h6.545c-.045-.646-.221-1.213-.527-1.7a3.142 3.142 0 0 0-1.173-1.139 3.036 3.036 0 0 0-1.581-.425c-.578 0-1.105.142-1.581.425a3.269 3.269 0 0 0-1.173 1.156c-.295.487-.465 1.048-.51 1.683Zm8.822.442c0-.839.17-1.604.51-2.295a4.355 4.355 0 0 1 1.444-1.683 3.614 3.614 0 0 1 2.091-.629 3.4 3.4 0 0 1 1.972.595 4.3 4.3 0 0 1 1.378 1.411v-5.406h1.156v11.016c0 .159.034.278.102.357.067.068.17.108.305.119V136c-.226.034-.402.045-.526.034a.93.93 0 0 1-.63-.289c-.18-.181-.272-.38-.272-.595v-.867a3.873 3.873 0 0 1-1.427 1.377c-.601.34-1.225.51-1.87.51a3.893 3.893 0 0 1-1.7-.374 4.343 4.343 0 0 1-1.343-1.02 5.044 5.044 0 0 1-.884-1.462 4.942 4.942 0 0 1-.306-1.717Zm7.395 1.36v-2.737a2.99 2.99 0 0 0-.714-1.105 3.703 3.703 0 0 0-1.122-.799 2.716 2.716 0 0 0-1.224-.306c-.477 0-.907.102-1.293.306-.385.193-.72.459-1.002.799a3.8 3.8 0 0 0-.63 1.156 4.073 4.073 0 0 0-.22 1.326c0 .476.079.929.238 1.36.17.431.407.816.714 1.156a3.3 3.3 0 0 0 1.053.765c.397.181.828.272 1.292.272.295 0 .601-.057.918-.17.318-.113.618-.266.901-.459.295-.204.539-.442.732-.714.192-.272.311-.555.357-.85Zm12.63 3.213c-.737 0-1.4-.193-1.99-.578a4.462 4.462 0 0 1-1.376-1.428v5.457h-1.156v-12.478h1.037v1.717a4.015 4.015 0 0 1 1.41-1.343 3.627 3.627 0 0 1 1.888-.527c.612 0 1.173.13 1.683.391.51.249.952.589 1.326 1.02.374.431.663.924.867 1.479a4.58 4.58 0 0 1 .323 1.7 5.2 5.2 0 0 1-.51 2.295 4.176 4.176 0 0 1-1.394 1.666c-.601.419-1.304.629-2.108.629Zm-.323-1.02c.487 0 .923-.096 1.309-.289.385-.204.714-.476.986-.816.283-.34.498-.72.646-1.139.147-.431.22-.873.22-1.326 0-.476-.084-.929-.254-1.36a3.356 3.356 0 0 0-.697-1.139 3.547 3.547 0 0 0-1.054-.782 2.913 2.913 0 0 0-1.292-.289c-.295 0-.601.057-.918.17a3.617 3.617 0 0 0-.918.493 3.207 3.207 0 0 0-.714.697 1.866 1.866 0 0 0-.357.833v2.72c.181.419.425.799.73 1.139.307.329.658.595 1.055.799a2.91 2.91 0 0 0 1.258.289Zm10.067 1.02a4.361 4.361 0 0 1-1.768-.357 4.562 4.562 0 0 1-1.394-1.003 4.853 4.853 0 0 1-.901-1.462 4.798 4.798 0 0 1-.323-1.751c0-.635.108-1.224.323-1.768a4.437 4.437 0 0 1 .918-1.462 4.208 4.208 0 0 1 1.394-1.003 4.196 4.196 0 0 1 1.768-.374c.635 0 1.218.125 1.751.374.533.238.997.572 1.394 1.003.397.419.703.907.918 1.462.215.544.323 1.133.323 1.768 0 .612-.108 1.196-.323 1.751a4.677 4.677 0 0 1-.918 1.462c-.385.419-.85.754-1.394 1.003a4.287 4.287 0 0 1-1.768.357Zm-3.213-4.556c0 .657.142 1.258.425 1.802.295.533.686.958 1.173 1.275a2.976 2.976 0 0 0 1.615.459 2.9 2.9 0 0 0 1.615-.476 3.498 3.498 0 0 0 1.173-1.292 3.781 3.781 0 0 0 .442-1.802 3.72 3.72 0 0 0-.442-1.802 3.498 3.498 0 0 0-1.173-1.292 2.9 2.9 0 0 0-1.615-.476c-.589 0-1.128.164-1.615.493a3.708 3.708 0 0 0-1.156 1.309c-.295.533-.442 1.133-.442 1.802Zm12.456 4.556a5.628 5.628 0 0 1-2.023-.357 4.257 4.257 0 0 1-1.615-1.088l.476-.816c.499.465.998.805 1.496 1.02a4.31 4.31 0 0 0 1.615.306c.692 0 1.253-.136 1.683-.408.431-.283.646-.686.646-1.207 0-.351-.107-.618-.323-.799-.204-.193-.504-.346-.901-.459-.385-.125-.85-.255-1.394-.391a12.241 12.241 0 0 1-1.547-.527c-.408-.193-.719-.431-.935-.714-.204-.295-.306-.674-.306-1.139 0-.578.142-1.054.425-1.428a2.68 2.68 0 0 1 1.19-.867 4.541 4.541 0 0 1 1.7-.306c.68 0 1.281.108 1.802.323.522.215.947.516 1.275.901l-.561.782a2.851 2.851 0 0 0-1.139-.799 3.692 3.692 0 0 0-1.445-.272c-.362 0-.708.051-1.037.153-.328.091-.6.249-.816.476-.204.215-.306.516-.306.901 0 .317.08.567.238.748.159.17.397.317.714.442.318.113.709.238 1.173.374.669.181 1.253.368 1.751.561.499.181.884.419 1.156.714.272.295.408.708.408 1.241 0 .827-.311 1.473-.935 1.938-.623.465-1.445.697-2.465.697Zm9.561-.595a6.252 6.252 0 0 0-.425.187 3.814 3.814 0 0 1-1.581.34 2.37 2.37 0 0 1-.935-.187 1.577 1.577 0 0 1-.68-.561c-.17-.261-.255-.578-.255-.952v-6.341h-1.224v-.918h1.224v-2.992h1.156v2.992h2.04v.918h-2.04v6.018c.023.317.136.555.34.714.215.159.459.238.731.238.317 0 .606-.051.867-.153.261-.113.419-.193.476-.238l.306.935Zm4.351.595a5.628 5.628 0 0 1-2.023-.357 4.257 4.257 0 0 1-1.615-1.088l.476-.816c.499.465.998.805 1.496 1.02a4.31 4.31 0 0 0 1.615.306c.692 0 1.253-.136 1.683-.408.431-.283.646-.686.646-1.207 0-.351-.107-.618-.323-.799-.204-.193-.504-.346-.901-.459-.385-.125-.85-.255-1.394-.391a12.241 12.241 0 0 1-1.547-.527c-.408-.193-.719-.431-.935-.714-.204-.295-.306-.674-.306-1.139 0-.578.142-1.054.425-1.428a2.68 2.68 0 0 1 1.19-.867 4.541 4.541 0 0 1 1.7-.306c.68 0 1.281.108 1.802.323.522.215.947.516 1.275.901l-.561.782a2.851 2.851 0 0 0-1.139-.799 3.692 3.692 0 0 0-1.445-.272c-.362 0-.708.051-1.037.153-.328.091-.6.249-.816.476-.204.215-.306.516-.306.901 0 .317.08.567.238.748.159.17.397.317.714.442.318.113.709.238 1.173.374.669.181 1.253.368 1.751.561.499.181.884.419 1.156.714.272.295.408.708.408 1.241 0 .827-.311 1.473-.935 1.938-.623.465-1.445.697-2.465.697Zm-62.852 15.427c0-.839.17-1.604.51-2.295a4.355 4.355 0 0 1 1.445-1.683 3.614 3.614 0 0 1 2.09-.629 3.4 3.4 0 0 1 1.973.595 4.3 4.3 0 0 1 1.377 1.411v-5.406h1.156v11.016c0 .159.034.278.102.357.068.068.17.108.306.119V156c-.227.034-.403.045-.527.034a.93.93 0 0 1-.63-.289c-.18-.181-.271-.38-.271-.595v-.867a3.874 3.874 0 0 1-1.428 1.377c-.6.34-1.224.51-1.87.51a3.893 3.893 0 0 1-1.7-.374 4.343 4.343 0 0 1-1.343-1.02 5.044 5.044 0 0 1-.884-1.462 4.942 4.942 0 0 1-.306-1.717Zm7.395 1.36v-2.737a2.993 2.993 0 0 0-.714-1.105 3.703 3.703 0 0 0-1.122-.799 2.716 2.716 0 0 0-1.224-.306c-.476 0-.907.102-1.292.306-.386.193-.72.459-1.003.799a3.8 3.8 0 0 0-.63 1.156 4.07 4.07 0 0 0-.22 1.326c0 .476.08.929.238 1.36.17.431.408.816.714 1.156a3.3 3.3 0 0 0 1.054.765c.396.181.827.272 1.292.272.294 0 .6-.057.918-.17.317-.113.617-.266.9-.459.295-.204.54-.442.732-.714.192-.272.311-.555.357-.85Zm3.06.493c0-.555.16-1.031.477-1.428.317-.408.754-.72 1.309-.935.567-.227 1.218-.34 1.955-.34.43 0 .878.034 1.343.102.465.068.878.17 1.24.306v-.748c0-.748-.22-1.343-.662-1.785-.442-.442-1.054-.663-1.836-.663a3.86 3.86 0 0 0-1.411.272c-.453.17-.93.425-1.428.765l-.442-.816a7.195 7.195 0 0 1 1.7-.884 4.895 4.895 0 0 1 1.7-.306c1.088 0 1.95.312 2.584.935.635.623.952 1.485.952 2.584v4.097c0 .159.034.278.102.357.068.068.176.108.323.119V156a9.849 9.849 0 0 0-.323.034.617.617 0 0 1-.204 0c-.283-.011-.499-.102-.646-.272a.902.902 0 0 1-.238-.544l-.017-.646c-.397.51-.912.907-1.547 1.19a4.877 4.877 0 0 1-1.938.408 3.344 3.344 0 0 1-1.547-.357 2.9 2.9 0 0 1-1.071-.986 2.644 2.644 0 0 1-.374-1.377Zm5.934.68c.125-.159.22-.312.289-.459a.954.954 0 0 0 .102-.391v-1.292a7.03 7.03 0 0 0-2.448-.459c-.827 0-1.496.164-2.006.493-.51.329-.765.776-.765 1.343 0 .329.085.64.255.935.17.283.42.521.748.714.329.181.714.272 1.156.272.555 0 1.07-.108 1.547-.323.487-.215.861-.493 1.122-.833Zm4.045 1.87v-8.857h1.156V156h-1.156Zm0-10.71v-1.7h1.156v1.7h-1.156Zm3.753-1.7h1.156v10.404c0 .442.08.731.238.867a.858.858 0 0 0 .578.204c.204 0 .408-.023.612-.068.204-.045.38-.091.527-.136l.204.935a3.809 3.809 0 0 1-.8.221 4.439 4.439 0 0 1-.798.085c-.522 0-.94-.153-1.258-.459-.306-.306-.46-.725-.46-1.258V143.59Zm4.808 15.13c.159.011.312.017.46.017a.893.893 0 0 0 .322-.017.697.697 0 0 0 .391-.238c.125-.136.272-.397.442-.782.17-.385.408-.952.714-1.7l-3.859-8.857h1.224l3.247 7.667 2.992-7.667h1.156l-4.59 11.424c-.079.215-.198.414-.357.595-.158.193-.357.34-.595.442-.226.113-.51.176-.85.187-.102.011-.21.011-.323 0-.102 0-.226-.011-.374-.034v-1.037Z" fill="#A5A5A5"/><g clip-path="url('#clip0_3_78')" fill="#000"><path d="M133.486 18H82.514a.511.511 0 0 0-.514.506v34.988a.51.51 0 0 0 .514.506h50.972a.507.507 0 0 0 .474-.311.521.521 0 0 0 .04-.195V18.506a.52.52 0 0 0-.152-.36.505.505 0 0 0-.362-.146ZM84.849 51.192V20.808h46.3v30.384h-46.3ZM84.414 17h45.172a1.502 1.502 0 0 0 1.061-2.56 1.502 1.502 0 0 0-1.061-.44H84.414a1.5 1.5 0 1 0 0 3ZM87.424 13h40.148a1.502 1.502 0 0 0 1.061-2.56 1.502 1.502 0 0 0-1.061-.44H87.424a1.5 1.5 0 1 0 0 3ZM90.408 9h34.184A1.456 1.456 0 0 0 126 7.5a1.456 1.456 0 0 0-1.408-1.5H90.408A1.456 1.456 0 0 0 89 7.5 1.456 1.456 0 0 0 90.408 9Z"/></g><defs><clipPath id="clip0_3_78"><path fill="#fff" transform="translate(82 6)" d="M0 0h52v48H0z"/></clipPath></defs></svg>