<svg width="212" height="31" fill="none" xmlns="http://www.w3.org/2000/svg"><path d="M11.032 24.16c-1.579 0-3.019-.32-4.32-.96a10.933 10.933 0 0 1-3.36-2.624 12.079 12.079 0 0 1-2.176-3.68 12.197 12.197 0 0 1-.768-4.256c0-1.515.267-2.955.8-4.32a11.753 11.753 0 0 1 2.24-3.68A10.959 10.959 0 0 1 6.84 2.08c1.301-.64 2.71-.96 4.224-.96 1.6 0 3.04.33 4.32.992a10.718 10.718 0 0 1 3.36 2.656A12.496 12.496 0 0 1 20.92 8.48c.512 1.365.768 2.752.768 4.16 0 1.536-.267 2.997-.8 4.384a11.932 11.932 0 0 1-2.272 3.68 10.698 10.698 0 0 1-3.392 2.528c-1.28.619-2.677.928-4.192.928ZM2.04 12.64c0 1.301.224 2.55.672 3.744a10.844 10.844 0 0 0 1.856 3.2 9.335 9.335 0 0 0 2.848 2.24c1.11.555 2.325.832 3.648.832 1.344 0 2.57-.288 3.68-.864a9.044 9.044 0 0 0 2.848-2.304 10.29 10.29 0 0 0 1.792-3.2c.427-1.195.64-2.41.64-3.648 0-1.301-.224-2.55-.672-3.744a9.99 9.99 0 0 0-1.856-3.2 9.213 9.213 0 0 0-2.88-2.24c-1.088-.555-2.272-.832-3.552-.832-1.365 0-2.603.288-3.712.864a9.044 9.044 0 0 0-2.848 2.304A11.724 11.724 0 0 0 2.68 9.024a10.503 10.503 0 0 0-.64 3.616ZM24.175 1.28l7.936 10.304L40.015 1.28h1.888L33.007 12.8l8.64 11.2H39.76l-7.648-9.984L24.431 24h-1.92l8.64-11.2-8.896-11.52h1.92Zm20.35 0 7.936 12.576L60.429 1.28h1.824l-8.96 14.144V24h-1.632v-8.64L42.733 1.28h1.792Zm28.883 22.88c-1.536 0-2.955-.33-4.256-.992a11.322 11.322 0 0 1-3.392-2.624 12.685 12.685 0 0 1-2.24-3.712 12.11 12.11 0 0 1-.768-4.224c0-1.493.256-2.923.768-4.288a11.59 11.59 0 0 1 2.176-3.68 10.238 10.238 0 0 1 3.328-2.56c1.28-.64 2.677-.96 4.192-.96 2.261 0 4.085.47 5.472 1.408 1.408.917 2.474 2.101 3.2 3.552l-1.344.8c-.768-1.493-1.792-2.57-3.072-3.232-1.259-.683-2.688-1.024-4.288-1.024-1.344 0-2.56.288-3.648.864a8.433 8.433 0 0 0-2.784 2.272 10.159 10.159 0 0 0-1.76 3.2 11.376 11.376 0 0 0-.608 3.68c0 1.344.234 2.613.704 3.808a10.656 10.656 0 0 0 1.952 3.2 9.165 9.165 0 0 0 2.912 2.208c1.11.533 2.293.8 3.552.8a8.613 8.613 0 0 0 4.16-1.056c1.301-.725 2.55-1.856 3.744-3.392v1.824c-2.262 2.752-4.928 4.128-8 4.128Zm7.648-9.888h-5.152V12.96h6.56V24h-1.408v-9.728Zm21.337 8.256V24H87.257V1.28h14.848v1.472H88.889v8.928h11.552v1.408H88.889v9.44h13.504Zm6.09-18.208V24h-1.632V1.28h1.344l15.84 20v-20h1.632V24h-1.6L108.483 4.32Zm44.553.736A6.37 6.37 0 0 0 151.82 4a6.233 6.233 0 0 0-1.44-.768 7.952 7.952 0 0 0-1.664-.48 10.935 10.935 0 0 0-1.92-.16c-2.219 0-3.84.427-4.864 1.28-1.003.832-1.504 1.963-1.504 3.392 0 .96.224 1.728.672 2.304.469.555 1.194 1.003 2.176 1.344.981.341 2.25.672 3.808.992 1.642.341 3.061.747 4.256 1.216 1.194.448 2.112 1.067 2.752 1.856.661.79.992 1.856.992 3.2 0 1.003-.192 1.888-.576 2.656a4.955 4.955 0 0 1-1.664 1.856c-.726.49-1.59.864-2.592 1.12-.982.256-2.08.384-3.296.384-1.174 0-2.294-.128-3.36-.384a13.01 13.01 0 0 1-3.008-1.12 11.649 11.649 0 0 1-2.624-1.888l.864-1.312c.469.512.992.97 1.568 1.376.597.384 1.237.715 1.92.992.704.277 1.45.501 2.24.672.789.15 1.61.224 2.464.224 1.984 0 3.53-.363 4.64-1.088 1.13-.747 1.696-1.845 1.696-3.296 0-1.003-.256-1.813-.768-2.432s-1.302-1.12-2.368-1.504c-1.067-.405-2.4-.779-4-1.12-1.6-.341-2.966-.725-4.096-1.152-1.11-.427-1.952-1.003-2.528-1.728-.555-.725-.832-1.707-.832-2.944 0-1.365.33-2.517.992-3.456.682-.96 1.632-1.685 2.848-2.176 1.216-.49 2.613-.736 4.192-.736.981 0 1.888.096 2.72.288.853.192 1.632.49 2.336.896a8.889 8.889 0 0 1 2.016 1.472l-.832 1.28ZM172.315 24h-1.6v-9.28c0-2.048-.352-3.584-1.056-4.608-.704-1.045-1.728-1.568-3.072-1.568-.875 0-1.75.224-2.624.672a7.024 7.024 0 0 0-2.272 1.856 7.037 7.037 0 0 0-1.376 2.624V24h-1.6V.64h1.6v10.688a7.986 7.986 0 0 1 2.848-3.104c1.216-.768 2.506-1.152 3.872-1.152.938 0 1.738.17 2.4.512a4.324 4.324 0 0 1 1.632 1.472c.426.64.736 1.408.928 2.304.213.896.32 1.92.32 3.072V24Zm11.813.32c-1.173 0-2.261-.224-3.264-.672a7.903 7.903 0 0 1-2.56-1.856 9.053 9.053 0 0 1-1.696-2.784 9.044 9.044 0 0 1-.608-3.296 8.88 8.88 0 0 1 .608-3.296 8.657 8.657 0 0 1 1.696-2.752 8.035 8.035 0 0 1 2.592-1.888 7.53 7.53 0 0 1 3.232-.704c1.152 0 2.219.235 3.2.704a8.013 8.013 0 0 1 2.592 1.888 8.346 8.346 0 0 1 1.728 2.752 8.86 8.86 0 0 1 .608 3.296c0 1.152-.202 2.25-.608 3.296a8.716 8.716 0 0 1-1.728 2.784 7.793 7.793 0 0 1-2.592 1.856c-.981.448-2.048.672-3.2.672Zm-6.528-8.544c0 1.301.288 2.496.864 3.584a7.207 7.207 0 0 0 2.368 2.56c.982.64 2.07.96 3.264.96 1.195 0 2.283-.32 3.264-.96a7.02 7.02 0 0 0 2.368-2.624 7.5 7.5 0 0 0 .896-3.616c0-1.301-.298-2.496-.896-3.584a6.77 6.77 0 0 0-2.368-2.592 5.66 5.66 0 0 0-3.232-.992c-1.194 0-2.282.33-3.264.992-.981.661-1.77 1.536-2.368 2.624-.597 1.088-.896 2.304-.896 3.648Zm26.618 8.544c-1.43 0-2.71-.373-3.84-1.12a9.514 9.514 0 0 1-2.688-2.784v10.4h-1.6V7.36h1.472v3.328a7.914 7.914 0 0 1 2.72-2.592c1.13-.683 2.325-1.024 3.584-1.024 1.173 0 2.24.245 3.2.736.96.47 1.792 1.12 2.496 1.952a8.648 8.648 0 0 1 1.664 2.752 8.624 8.624 0 0 1 .608 3.2c0 1.536-.32 2.965-.96 4.288-.64 1.301-1.536 2.347-2.688 3.136-1.131.79-2.454 1.184-3.968 1.184Zm-.384-1.44c.981 0 1.856-.203 2.624-.608a6.249 6.249 0 0 0 2.016-1.632 7.63 7.63 0 0 0 1.28-2.304 7.905 7.905 0 0 0 .448-2.624c0-.96-.171-1.867-.512-2.72a7.153 7.153 0 0 0-1.44-2.304 6.674 6.674 0 0 0-2.112-1.568 5.594 5.594 0 0 0-2.592-.608c-.576 0-1.195.117-1.856.352a7.82 7.82 0 0 0-1.856.992 6.274 6.274 0 0 0-1.44 1.472c-.384.533-.619 1.088-.704 1.664v5.472c.384.81.874 1.557 1.472 2.24a7.501 7.501 0 0 0 2.144 1.6c.81.384 1.653.576 2.528.576Z" fill="#08A6E4"/></svg>