<svg width="27" height="27" fill="none" xmlns="http://www.w3.org/2000/svg"><g clip-path="url('#clip0_4_826')"><path d="M7.022 11.656a16.832 16.832 0 0 0 7.322 7.322l2.444-2.444a1.1 1.1 0 0 1 1.133-.267c1.28.42 2.62.634 3.967.633A1.114 1.114 0 0 1 23 18.011v3.878A1.114 1.114 0 0 1 21.889 23 18.886 18.886 0 0 1 3 4.111 1.114 1.114 0 0 1 4.111 3H8a1.114 1.114 0 0 1 1.111 1.111 12.623 12.623 0 0 0 .633 3.967 1.115 1.115 0 0 1-.278 1.133l-2.444 2.445Z" stroke="#08A6E4" stroke-width="2"/></g><defs><clipPath id="clip0_4_826"><path fill="#fff" d="M0 0h27v27H0z"/></clipPath></defs></svg>