<svg width="163" height="168" viewBox="0 0 163 168" fill="none" xmlns="http://www.w3.org/2000/svg">
<circle cx="82.015" cy="31.355" r="31.355" fill="#55DFB4"/>
<path d="M42.1657 93.0599V95.9399H33.5257V93.0599H36.3657V87.9599C36.2457 88.1199 36.059 88.2799 35.8057 88.4399C35.5523 88.5999 35.2657 88.7533 34.9457 88.8999C34.639 89.0466 34.3257 89.1666 34.0057 89.2599C33.6857 89.3399 33.3923 89.3799 33.1257 89.3799V86.4199C33.3523 86.4199 33.6323 86.3533 33.9657 86.2199C34.299 86.0733 34.6323 85.8933 34.9657 85.6799C35.3123 85.4666 35.6123 85.2533 35.8657 85.0399C36.1323 84.8266 36.299 84.6533 36.3657 84.5199H39.6257V93.0599H42.1657ZM59.9572 90.0799C59.9572 91.2533 59.7306 92.2999 59.2772 93.2199C58.8239 94.1266 58.2039 94.8399 57.4172 95.3599C56.6306 95.8799 55.7372 96.1399 54.7372 96.1399C53.7506 96.1399 52.8572 95.8799 52.0572 95.3599C51.2706 94.8399 50.6506 94.1266 50.1972 93.2199C49.7439 92.2999 49.5172 91.2533 49.5172 90.0799C49.5172 88.9066 49.7439 87.8666 50.1972 86.9599C50.6506 86.0399 51.2706 85.3199 52.0572 84.7999C52.8572 84.2666 53.7506 83.9999 54.7372 83.9999C55.7372 83.9999 56.6306 84.2666 57.4172 84.7999C58.2039 85.3199 58.8239 86.0399 59.2772 86.9599C59.7306 87.8666 59.9572 88.9066 59.9572 90.0799ZM56.7372 90.0799C56.7372 89.4533 56.6506 88.9066 56.4772 88.4399C56.3039 87.9733 56.0639 87.6066 55.7572 87.3399C55.4639 87.0733 55.1239 86.9399 54.7372 86.9399C54.3372 86.9399 53.9839 87.0733 53.6772 87.3399C53.3706 87.6066 53.1306 87.9733 52.9572 88.4399C52.7972 88.9066 52.7172 89.4533 52.7172 90.0799C52.7172 90.7066 52.7972 91.2533 52.9572 91.7199C53.1306 92.1866 53.3706 92.5533 53.6772 92.8199C53.9839 93.0733 54.3372 93.1999 54.7372 93.1999C55.1239 93.1999 55.4639 93.0733 55.7572 92.8199C56.0639 92.5533 56.3039 92.1866 56.4772 91.7199C56.6506 91.2533 56.7372 90.7066 56.7372 90.0799ZM78.2024 90.0799C78.2024 91.2533 77.9757 92.2999 77.5224 93.2199C77.0691 94.1266 76.4491 94.8399 75.6624 95.3599C74.8757 95.8799 73.9824 96.1399 72.9824 96.1399C71.9957 96.1399 71.1024 95.8799 70.3024 95.3599C69.5157 94.8399 68.8957 94.1266 68.4424 93.2199C67.9891 92.2999 67.7624 91.2533 67.7624 90.0799C67.7624 88.9066 67.9891 87.8666 68.4424 86.9599C68.8957 86.0399 69.5157 85.3199 70.3024 84.7999C71.1024 84.2666 71.9957 83.9999 72.9824 83.9999C73.9824 83.9999 74.8757 84.2666 75.6624 84.7999C76.4491 85.3199 77.0691 86.0399 77.5224 86.9599C77.9757 87.8666 78.2024 88.9066 78.2024 90.0799ZM74.9824 90.0799C74.9824 89.4533 74.8957 88.9066 74.7224 88.4399C74.5491 87.9733 74.3091 87.6066 74.0024 87.3399C73.7091 87.0733 73.3691 86.9399 72.9824 86.9399C72.5824 86.9399 72.2291 87.0733 71.9224 87.3399C71.6157 87.6066 71.3757 87.9733 71.2024 88.4399C71.0424 88.9066 70.9624 89.4533 70.9624 90.0799C70.9624 90.7066 71.0424 91.2533 71.2024 91.7199C71.3757 92.1866 71.6157 92.5533 71.9224 92.8199C72.2291 93.0733 72.5824 93.1999 72.9824 93.1999C73.3691 93.1999 73.7091 93.0733 74.0024 92.8199C74.3091 92.5533 74.5491 92.1866 74.7224 91.7199C74.8957 91.2533 74.9824 90.7066 74.9824 90.0799ZM96.4475 90.0799C96.4475 91.2533 96.2209 92.2999 95.7675 93.2199C95.3142 94.1266 94.6942 94.8399 93.9075 95.3599C93.1209 95.8799 92.2275 96.1399 91.2275 96.1399C90.2409 96.1399 89.3475 95.8799 88.5475 95.3599C87.7609 94.8399 87.1409 94.1266 86.6875 93.2199C86.2342 92.2999 86.0075 91.2533 86.0075 90.0799C86.0075 88.9066 86.2342 87.8666 86.6875 86.9599C87.1409 86.0399 87.7609 85.3199 88.5475 84.7999C89.3475 84.2666 90.2409 83.9999 91.2275 83.9999C92.2275 83.9999 93.1209 84.2666 93.9075 84.7999C94.6942 85.3199 95.3142 86.0399 95.7675 86.9599C96.2209 87.8666 96.4475 88.9066 96.4475 90.0799ZM93.2275 90.0799C93.2275 89.4533 93.1409 88.9066 92.9675 88.4399C92.7942 87.9733 92.5542 87.6066 92.2475 87.3399C91.9542 87.0733 91.6142 86.9399 91.2275 86.9399C90.8275 86.9399 90.4742 87.0733 90.1675 87.3399C89.8609 87.6066 89.6209 87.9733 89.4475 88.4399C89.2875 88.9066 89.2075 89.4533 89.2075 90.0799C89.2075 90.7066 89.2875 91.2533 89.4475 91.7199C89.6209 92.1866 89.8609 92.5533 90.1675 92.8199C90.4742 93.0733 90.8275 93.1999 91.2275 93.1999C91.6142 93.1999 91.9542 93.0733 92.2475 92.8199C92.5542 92.5533 92.7942 92.1866 92.9675 91.7199C93.1409 91.2533 93.2275 90.7066 93.2275 90.0799ZM114.693 90.0799C114.693 91.2533 114.466 92.2999 114.013 93.2199C113.559 94.1266 112.939 94.8399 112.153 95.3599C111.366 95.8799 110.473 96.1399 109.473 96.1399C108.486 96.1399 107.593 95.8799 106.793 95.3599C106.006 94.8399 105.386 94.1266 104.933 93.2199C104.479 92.2999 104.253 91.2533 104.253 90.0799C104.253 88.9066 104.479 87.8666 104.933 86.9599C105.386 86.0399 106.006 85.3199 106.793 84.7999C107.593 84.2666 108.486 83.9999 109.473 83.9999C110.473 83.9999 111.366 84.2666 112.153 84.7999C112.939 85.3199 113.559 86.0399 114.013 86.9599C114.466 87.8666 114.693 88.9066 114.693 90.0799ZM111.473 90.0799C111.473 89.4533 111.386 88.9066 111.213 88.4399C111.039 87.9733 110.799 87.6066 110.493 87.3399C110.199 87.0733 109.859 86.9399 109.473 86.9399C109.073 86.9399 108.719 87.0733 108.413 87.3399C108.106 87.6066 107.866 87.9733 107.693 88.4399C107.533 88.9066 107.453 89.4533 107.453 90.0799C107.453 90.7066 107.533 91.2533 107.693 91.7199C107.866 92.1866 108.106 92.5533 108.413 92.8199C108.719 93.0733 109.073 93.1999 109.473 93.1999C109.859 93.1999 110.199 93.0733 110.493 92.8199C110.799 92.5533 111.039 92.1866 111.213 91.7199C111.386 91.2533 111.473 90.7066 111.473 90.0799ZM129.158 87.5599V90.1199H127.258V92.1999H124.378V90.1199H122.498V87.5599H124.378V85.4799H127.258V87.5599H129.158Z" fill="black"/>
<path d="M33.0449 133.45C33.0449 132.895 33.2036 132.419 33.5209 132.022C33.8382 131.614 34.2746 131.302 34.8299 131.087C35.3966 130.86 36.0482 130.747 36.7849 130.747C37.2156 130.747 37.6632 130.781 38.1279 130.849C38.5926 130.917 39.0062 131.019 39.3689 131.155V130.407C39.3689 129.659 39.1479 129.064 38.7059 128.622C38.2639 128.18 37.6519 127.959 36.8699 127.959C36.3939 127.959 35.9236 128.05 35.4589 128.231C35.0056 128.401 34.5296 128.656 34.0309 128.996L33.5889 128.18C34.1669 127.783 34.7336 127.489 35.2889 127.296C35.8442 127.092 36.4109 126.99 36.9889 126.99C38.0769 126.99 38.9382 127.302 39.5729 127.925C40.2076 128.548 40.5249 129.41 40.5249 130.509V134.606C40.5249 134.765 40.5589 134.884 40.6269 134.963C40.6949 135.031 40.8026 135.071 40.9499 135.082V136C40.8252 136.011 40.7176 136.023 40.6269 136.034C40.5362 136.045 40.4682 136.045 40.4229 136.034C40.1396 136.023 39.9242 135.932 39.7769 135.762C39.6296 135.592 39.5502 135.411 39.5389 135.218L39.5219 134.572C39.1252 135.082 38.6096 135.479 37.9749 135.762C37.3402 136.034 36.6942 136.17 36.0369 136.17C35.4702 136.17 34.9546 136.051 34.4899 135.813C34.0366 135.564 33.6796 135.235 33.4189 134.827C33.1696 134.408 33.0449 133.949 33.0449 133.45ZM38.9779 134.13C39.1026 133.971 39.1989 133.818 39.2669 133.671C39.3349 133.524 39.3689 133.393 39.3689 133.28V131.988C38.9836 131.841 38.5812 131.727 38.1619 131.648C37.7539 131.569 37.3402 131.529 36.9209 131.529C36.0936 131.529 35.4249 131.693 34.9149 132.022C34.4049 132.351 34.1499 132.798 34.1499 133.365C34.1499 133.694 34.2349 134.005 34.4049 134.3C34.5749 134.583 34.8242 134.821 35.1529 135.014C35.4816 135.195 35.8669 135.286 36.3089 135.286C36.8642 135.286 37.3799 135.178 37.8559 134.963C38.3432 134.748 38.7172 134.47 38.9779 134.13ZM42.4276 131.597C42.4276 130.758 42.5976 129.993 42.9376 129.302C43.2889 128.599 43.7706 128.038 44.3826 127.619C44.9946 127.2 45.6916 126.99 46.4736 126.99C47.2102 126.99 47.8676 127.188 48.4456 127.585C49.0349 127.97 49.4939 128.441 49.8226 128.996V123.59H50.9786V134.606C50.9786 134.765 51.0126 134.884 51.0806 134.963C51.1486 135.031 51.2506 135.071 51.3866 135.082V136C51.1599 136.034 50.9842 136.045 50.8596 136.034C50.6216 136.023 50.4119 135.926 50.2306 135.745C50.0492 135.564 49.9586 135.365 49.9586 135.15V134.283C49.6072 134.861 49.1312 135.32 48.5306 135.66C47.9299 136 47.3066 136.17 46.6606 136.17C46.0486 136.17 45.4819 136.045 44.9606 135.796C44.4506 135.547 44.0029 135.207 43.6176 134.776C43.2436 134.345 42.9489 133.858 42.7336 133.314C42.5296 132.759 42.4276 132.186 42.4276 131.597ZM49.8226 132.957V130.22C49.6752 129.812 49.4372 129.444 49.1086 129.115C48.7799 128.775 48.4059 128.509 47.9866 128.316C47.5786 128.112 47.1706 128.01 46.7626 128.01C46.2866 128.01 45.8559 128.112 45.4706 128.316C45.0852 128.509 44.7509 128.775 44.4676 129.115C44.1956 129.455 43.9859 129.84 43.8386 130.271C43.6912 130.702 43.6176 131.144 43.6176 131.597C43.6176 132.073 43.6969 132.526 43.8556 132.957C44.0256 133.388 44.2636 133.773 44.5696 134.113C44.8756 134.442 45.2269 134.697 45.6236 134.878C46.0202 135.059 46.4509 135.15 46.9156 135.15C47.2102 135.15 47.5162 135.093 47.8336 134.98C48.1509 134.867 48.4512 134.714 48.7346 134.521C49.0292 134.317 49.2729 134.079 49.4656 133.807C49.6582 133.535 49.7772 133.252 49.8226 132.957ZM53.0028 131.597C53.0028 130.758 53.1728 129.993 53.5128 129.302C53.8641 128.599 54.3458 128.038 54.9578 127.619C55.5698 127.2 56.2668 126.99 57.0488 126.99C57.7854 126.99 58.4428 127.188 59.0208 127.585C59.6101 127.97 60.0691 128.441 60.3978 128.996V123.59H61.5538V134.606C61.5538 134.765 61.5878 134.884 61.6558 134.963C61.7238 135.031 61.8258 135.071 61.9618 135.082V136C61.7351 136.034 61.5594 136.045 61.4348 136.034C61.1968 136.023 60.9871 135.926 60.8058 135.745C60.6244 135.564 60.5338 135.365 60.5338 135.15V134.283C60.1824 134.861 59.7064 135.32 59.1058 135.66C58.5051 136 57.8818 136.17 57.2358 136.17C56.6238 136.17 56.0571 136.045 55.5358 135.796C55.0258 135.547 54.5781 135.207 54.1928 134.776C53.8188 134.345 53.5241 133.858 53.3088 133.314C53.1048 132.759 53.0028 132.186 53.0028 131.597ZM60.3978 132.957V130.22C60.2504 129.812 60.0124 129.444 59.6838 129.115C59.3551 128.775 58.9811 128.509 58.5618 128.316C58.1538 128.112 57.7458 128.01 57.3378 128.01C56.8618 128.01 56.4311 128.112 56.0458 128.316C55.6604 128.509 55.3261 128.775 55.0428 129.115C54.7708 129.455 54.5611 129.84 54.4138 130.271C54.2664 130.702 54.1928 131.144 54.1928 131.597C54.1928 132.073 54.2721 132.526 54.4308 132.957C54.6008 133.388 54.8388 133.773 55.1448 134.113C55.4508 134.442 55.8021 134.697 56.1988 134.878C56.5954 135.059 57.0261 135.15 57.4908 135.15C57.7854 135.15 58.0914 135.093 58.4088 134.98C58.7261 134.867 59.0264 134.714 59.3098 134.521C59.6044 134.317 59.8481 134.079 60.0408 133.807C60.2334 133.535 60.3524 133.252 60.3978 132.957ZM67.9979 136.17C67.3633 136.17 66.7739 136.051 66.2299 135.813C65.6859 135.564 65.2156 135.229 64.8189 134.81C64.4223 134.379 64.1106 133.886 63.8839 133.331C63.6686 132.776 63.5609 132.181 63.5609 131.546C63.5609 130.719 63.7479 129.959 64.1219 129.268C64.5073 128.577 65.0343 128.027 65.7029 127.619C66.3716 127.2 67.1309 126.99 67.9809 126.99C68.8536 126.99 69.6129 127.2 70.2589 127.619C70.9163 128.038 71.4319 128.594 71.806 129.285C72.1799 129.965 72.3669 130.713 72.3669 131.529C72.3669 131.62 72.3669 131.71 72.3669 131.801C72.3669 131.88 72.3613 131.943 72.35 131.988H64.7679C64.8246 132.623 65.0003 133.189 65.2949 133.688C65.6009 134.175 65.9919 134.566 66.4679 134.861C66.9553 135.144 67.4823 135.286 68.0489 135.286C68.6269 135.286 69.1709 135.139 69.6809 134.844C70.2023 134.549 70.5649 134.164 70.7689 133.688L71.7719 133.96C71.5906 134.379 71.3129 134.759 70.9389 135.099C70.5649 135.439 70.1229 135.705 69.6129 135.898C69.1143 136.079 68.5759 136.17 67.9979 136.17ZM64.7339 131.155H71.2789C71.2336 130.509 71.0579 129.942 70.7519 129.455C70.4573 128.968 70.0663 128.588 69.5789 128.316C69.1029 128.033 68.5759 127.891 67.9979 127.891C67.4199 127.891 66.8929 128.033 66.4169 128.316C65.9409 128.588 65.5499 128.973 65.2439 129.472C64.9493 129.959 64.7793 130.52 64.7339 131.155ZM73.5555 131.597C73.5555 130.758 73.7255 129.993 74.0655 129.302C74.4168 128.599 74.8985 128.038 75.5105 127.619C76.1225 127.2 76.8195 126.99 77.6015 126.99C78.3382 126.99 78.9955 127.188 79.5735 127.585C80.1628 127.97 80.6218 128.441 80.9505 128.996V123.59H82.1065V134.606C82.1065 134.765 82.1405 134.884 82.2085 134.963C82.2765 135.031 82.3785 135.071 82.5145 135.082V136C82.2878 136.034 82.1122 136.045 81.9875 136.034C81.7495 136.023 81.5398 135.926 81.3585 135.745C81.1772 135.564 81.0865 135.365 81.0865 135.15V134.283C80.7352 134.861 80.2592 135.32 79.6585 135.66C79.0578 136 78.4345 136.17 77.7885 136.17C77.1765 136.17 76.6098 136.045 76.0885 135.796C75.5785 135.547 75.1308 135.207 74.7455 134.776C74.3715 134.345 74.0768 133.858 73.8615 133.314C73.6575 132.759 73.5555 132.186 73.5555 131.597ZM80.9505 132.957V130.22C80.8032 129.812 80.5652 129.444 80.2365 129.115C79.9078 128.775 79.5338 128.509 79.1145 128.316C78.7065 128.112 78.2985 128.01 77.8905 128.01C77.4145 128.01 76.9838 128.112 76.5985 128.316C76.2132 128.509 75.8788 128.775 75.5955 129.115C75.3235 129.455 75.1138 129.84 74.9665 130.271C74.8192 130.702 74.7455 131.144 74.7455 131.597C74.7455 132.073 74.8248 132.526 74.9835 132.957C75.1535 133.388 75.3915 133.773 75.6975 134.113C76.0035 134.442 76.3548 134.697 76.7515 134.878C77.1482 135.059 77.5788 135.15 78.0435 135.15C78.3382 135.15 78.6442 135.093 78.9615 134.98C79.2788 134.867 79.5792 134.714 79.8625 134.521C80.1572 134.317 80.4008 134.079 80.5935 133.807C80.7862 133.535 80.9052 133.252 80.9505 132.957ZM93.5807 136.17C92.844 136.17 92.181 135.977 91.5917 135.592C91.0137 135.207 90.5547 134.731 90.2147 134.164V139.621H89.0587V127.143H90.0957V128.86C90.447 128.305 90.9174 127.857 91.5067 127.517C92.096 127.166 92.725 126.99 93.3937 126.99C94.0057 126.99 94.5667 127.12 95.0767 127.381C95.5867 127.63 96.0287 127.97 96.4027 128.401C96.7767 128.832 97.0657 129.325 97.2697 129.88C97.485 130.424 97.5927 130.991 97.5927 131.58C97.5927 132.407 97.4227 133.172 97.0827 133.875C96.754 134.566 96.2894 135.122 95.6887 135.541C95.088 135.96 94.3854 136.17 93.5807 136.17ZM93.2577 135.15C93.745 135.15 94.1814 135.054 94.5667 134.861C94.952 134.657 95.2807 134.385 95.5527 134.045C95.836 133.705 96.0514 133.325 96.1987 132.906C96.346 132.475 96.4197 132.033 96.4197 131.58C96.4197 131.104 96.3347 130.651 96.1647 130.22C96.006 129.789 95.7737 129.41 95.4677 129.081C95.1617 128.752 94.8104 128.492 94.4137 128.299C94.017 128.106 93.5864 128.01 93.1217 128.01C92.827 128.01 92.521 128.067 92.2037 128.18C91.8864 128.293 91.5804 128.458 91.2857 128.673C91.0024 128.877 90.7644 129.109 90.5717 129.37C90.379 129.631 90.26 129.908 90.2147 130.203V132.923C90.396 133.342 90.6397 133.722 90.9457 134.062C91.2517 134.391 91.603 134.657 91.9997 134.861C92.4077 135.054 92.827 135.15 93.2577 135.15ZM103.325 136.17C102.69 136.17 102.101 136.051 101.557 135.813C101.024 135.564 100.56 135.229 100.163 134.81C99.7775 134.379 99.4772 133.892 99.2619 133.348C99.0465 132.793 98.9389 132.209 98.9389 131.597C98.9389 130.962 99.0465 130.373 99.2619 129.829C99.4772 129.274 99.7832 128.786 100.18 128.367C100.577 127.936 101.041 127.602 101.574 127.364C102.118 127.115 102.707 126.99 103.342 126.99C103.977 126.99 104.56 127.115 105.093 127.364C105.626 127.602 106.09 127.936 106.487 128.367C106.884 128.786 107.19 129.274 107.405 129.829C107.62 130.373 107.728 130.962 107.728 131.597C107.728 132.209 107.62 132.793 107.405 133.348C107.19 133.892 106.884 134.379 106.487 134.81C106.102 135.229 105.637 135.564 105.093 135.813C104.56 136.051 103.971 136.17 103.325 136.17ZM100.112 131.614C100.112 132.271 100.254 132.872 100.537 133.416C100.832 133.949 101.223 134.374 101.71 134.691C102.197 134.997 102.736 135.15 103.325 135.15C103.914 135.15 104.453 134.991 104.94 134.674C105.427 134.357 105.818 133.926 106.113 133.382C106.408 132.827 106.555 132.226 106.555 131.58C106.555 130.923 106.408 130.322 106.113 129.778C105.818 129.234 105.427 128.803 104.94 128.486C104.453 128.169 103.914 128.01 103.325 128.01C102.736 128.01 102.197 128.174 101.71 128.503C101.234 128.832 100.849 129.268 100.554 129.812C100.259 130.345 100.112 130.945 100.112 131.614ZM112.568 136.17C111.843 136.17 111.169 136.051 110.545 135.813C109.922 135.575 109.384 135.212 108.93 134.725L109.406 133.909C109.905 134.374 110.404 134.714 110.902 134.929C111.412 135.133 111.951 135.235 112.517 135.235C113.209 135.235 113.77 135.099 114.2 134.827C114.631 134.544 114.846 134.141 114.846 133.62C114.846 133.269 114.739 133.002 114.523 132.821C114.319 132.628 114.019 132.475 113.622 132.362C113.237 132.237 112.772 132.107 112.228 131.971C111.616 131.801 111.101 131.625 110.681 131.444C110.273 131.251 109.962 131.013 109.746 130.73C109.542 130.435 109.44 130.056 109.44 129.591C109.44 129.013 109.582 128.537 109.865 128.163C110.16 127.778 110.557 127.489 111.055 127.296C111.565 127.092 112.132 126.99 112.755 126.99C113.435 126.99 114.036 127.098 114.557 127.313C115.079 127.528 115.504 127.829 115.832 128.214L115.271 128.996C114.954 128.633 114.574 128.367 114.132 128.197C113.702 128.016 113.22 127.925 112.687 127.925C112.325 127.925 111.979 127.976 111.65 128.078C111.322 128.169 111.05 128.327 110.834 128.554C110.63 128.769 110.528 129.07 110.528 129.455C110.528 129.772 110.608 130.022 110.766 130.203C110.925 130.373 111.163 130.52 111.48 130.645C111.798 130.758 112.189 130.883 112.653 131.019C113.322 131.2 113.906 131.387 114.404 131.58C114.903 131.761 115.288 131.999 115.56 132.294C115.832 132.589 115.968 133.002 115.968 133.535C115.968 134.362 115.657 135.008 115.033 135.473C114.41 135.938 113.588 136.17 112.568 136.17ZM122.129 135.575C122.038 135.609 121.897 135.671 121.704 135.762C121.511 135.853 121.279 135.932 121.007 136C120.735 136.068 120.44 136.102 120.123 136.102C119.794 136.102 119.483 136.04 119.188 135.915C118.905 135.79 118.678 135.603 118.508 135.354C118.338 135.093 118.253 134.776 118.253 134.402V128.061H117.029V127.143H118.253V124.151H119.409V127.143H121.449V128.061H119.409V134.079C119.432 134.396 119.545 134.634 119.749 134.793C119.964 134.952 120.208 135.031 120.48 135.031C120.797 135.031 121.086 134.98 121.347 134.878C121.608 134.765 121.766 134.685 121.823 134.64L122.129 135.575ZM126.48 136.17C125.755 136.17 125.081 136.051 124.457 135.813C123.834 135.575 123.296 135.212 122.842 134.725L123.318 133.909C123.817 134.374 124.316 134.714 124.814 134.929C125.324 135.133 125.863 135.235 126.429 135.235C127.121 135.235 127.682 135.099 128.112 134.827C128.543 134.544 128.758 134.141 128.758 133.62C128.758 133.269 128.651 133.002 128.435 132.821C128.231 132.628 127.931 132.475 127.534 132.362C127.149 132.237 126.684 132.107 126.14 131.971C125.528 131.801 125.013 131.625 124.593 131.444C124.185 131.251 123.874 131.013 123.658 130.73C123.454 130.435 123.352 130.056 123.352 129.591C123.352 129.013 123.494 128.537 123.777 128.163C124.072 127.778 124.469 127.489 124.967 127.296C125.477 127.092 126.044 126.99 126.667 126.99C127.347 126.99 127.948 127.098 128.469 127.313C128.991 127.528 129.416 127.829 129.744 128.214L129.183 128.996C128.866 128.633 128.486 128.367 128.044 128.197C127.614 128.016 127.132 127.925 126.599 127.925C126.237 127.925 125.891 127.976 125.562 128.078C125.234 128.169 124.962 128.327 124.746 128.554C124.542 128.769 124.44 129.07 124.44 129.455C124.44 129.772 124.52 130.022 124.678 130.203C124.837 130.373 125.075 130.52 125.392 130.645C125.71 130.758 126.101 130.883 126.565 131.019C127.234 131.2 127.818 131.387 128.316 131.58C128.815 131.761 129.2 131.999 129.472 132.294C129.744 132.589 129.88 133.002 129.88 133.535C129.88 134.362 129.569 135.008 128.945 135.473C128.322 135.938 127.5 136.17 126.48 136.17ZM63.6278 151.597C63.6278 150.758 63.7978 149.993 64.1378 149.302C64.4891 148.599 64.9708 148.038 65.5828 147.619C66.1948 147.2 66.8918 146.99 67.6738 146.99C68.4104 146.99 69.0678 147.188 69.6458 147.585C70.2351 147.97 70.6941 148.441 71.0228 148.996V143.59H72.1788V154.606C72.1788 154.765 72.2128 154.884 72.2808 154.963C72.3488 155.031 72.4508 155.071 72.5868 155.082V156C72.3601 156.034 72.1844 156.045 72.0598 156.034C71.8218 156.023 71.6121 155.926 71.4308 155.745C71.2494 155.564 71.1588 155.365 71.1588 155.15V154.283C70.8074 154.861 70.3314 155.32 69.7308 155.66C69.1301 156 68.5068 156.17 67.8608 156.17C67.2488 156.17 66.6821 156.045 66.1608 155.796C65.6508 155.547 65.2031 155.207 64.8178 154.776C64.4438 154.345 64.1491 153.858 63.9338 153.314C63.7298 152.759 63.6278 152.186 63.6278 151.597ZM71.0228 152.957V150.22C70.8754 149.812 70.6374 149.444 70.3088 149.115C69.9801 148.775 69.6061 148.509 69.1868 148.316C68.7788 148.112 68.3708 148.01 67.9628 148.01C67.4868 148.01 67.0561 148.112 66.6708 148.316C66.2854 148.509 65.9511 148.775 65.6678 149.115C65.3958 149.455 65.1861 149.84 65.0388 150.271C64.8914 150.702 64.8178 151.144 64.8178 151.597C64.8178 152.073 64.8971 152.526 65.0558 152.957C65.2258 153.388 65.4638 153.773 65.7698 154.113C66.0758 154.442 66.4271 154.697 66.8238 154.878C67.2204 155.059 67.6511 155.15 68.1158 155.15C68.4104 155.15 68.7164 155.093 69.0338 154.98C69.3511 154.867 69.6514 154.714 69.9348 154.521C70.2294 154.317 70.4731 154.079 70.6658 153.807C70.8584 153.535 70.9774 153.252 71.0228 152.957ZM74.0839 153.45C74.0839 152.895 74.2426 152.419 74.5599 152.022C74.8773 151.614 75.3136 151.302 75.8689 151.087C76.4356 150.86 77.0873 150.747 77.8239 150.747C78.2546 150.747 78.7023 150.781 79.1669 150.849C79.6316 150.917 80.0453 151.019 80.4079 151.155V150.407C80.4079 149.659 80.1869 149.064 79.7449 148.622C79.3029 148.18 78.6909 147.959 77.9089 147.959C77.4329 147.959 76.9626 148.05 76.4979 148.231C76.0446 148.401 75.5686 148.656 75.0699 148.996L74.6279 148.18C75.2059 147.783 75.7726 147.489 76.3279 147.296C76.8833 147.092 77.4499 146.99 78.0279 146.99C79.1159 146.99 79.9773 147.302 80.6119 147.925C81.2466 148.548 81.5639 149.41 81.5639 150.509V154.606C81.5639 154.765 81.5979 154.884 81.6659 154.963C81.7339 155.031 81.8416 155.071 81.9889 155.082V156C81.8643 156.011 81.7566 156.023 81.6659 156.034C81.5753 156.045 81.5073 156.045 81.4619 156.034C81.1786 156.023 80.9633 155.932 80.8159 155.762C80.6686 155.592 80.5893 155.411 80.5779 155.218L80.5609 154.572C80.1643 155.082 79.6486 155.479 79.0139 155.762C78.3793 156.034 77.7333 156.17 77.0759 156.17C76.5093 156.17 75.9936 156.051 75.5289 155.813C75.0756 155.564 74.7186 155.235 74.4579 154.827C74.2086 154.408 74.0839 153.949 74.0839 153.45ZM80.0169 154.13C80.1416 153.971 80.2379 153.818 80.3059 153.671C80.3739 153.524 80.4079 153.393 80.4079 153.28V151.988C80.0226 151.841 79.6203 151.727 79.2009 151.648C78.7929 151.569 78.3793 151.529 77.9599 151.529C77.1326 151.529 76.4639 151.693 75.9539 152.022C75.4439 152.351 75.1889 152.798 75.1889 153.365C75.1889 153.694 75.2739 154.005 75.4439 154.3C75.6139 154.583 75.8633 154.821 76.1919 155.014C76.5206 155.195 76.9059 155.286 77.3479 155.286C77.9033 155.286 78.4189 155.178 78.8949 154.963C79.3823 154.748 79.7563 154.47 80.0169 154.13ZM84.0616 156V147.143H85.2176V156H84.0616ZM84.0616 145.29V143.59H85.2176V145.29H84.0616ZM87.8148 143.59H88.9708V153.994C88.9708 154.436 89.0501 154.725 89.2088 154.861C89.3674 154.997 89.5601 155.065 89.7868 155.065C89.9908 155.065 90.1948 155.042 90.3988 154.997C90.6028 154.952 90.7784 154.906 90.9258 154.861L91.1298 155.796C90.9144 155.887 90.6481 155.96 90.3308 156.017C90.0248 156.074 89.7584 156.102 89.5318 156.102C89.0104 156.102 88.5911 155.949 88.2738 155.643C87.9678 155.337 87.8148 154.918 87.8148 154.385V143.59ZM92.6234 158.72C92.782 158.731 92.935 158.737 93.0824 158.737C93.2297 158.748 93.3374 158.743 93.4054 158.72C93.5414 158.697 93.6717 158.618 93.7964 158.482C93.921 158.346 94.0684 158.085 94.2384 157.7C94.4084 157.315 94.6464 156.748 94.9524 156L91.0934 147.143H92.3174L95.5644 154.81L98.5564 147.143H99.7124L95.1224 158.567C95.043 158.782 94.924 158.981 94.7654 159.162C94.6067 159.355 94.4084 159.502 94.1704 159.604C93.9437 159.717 93.6604 159.78 93.3204 159.791C93.2184 159.802 93.1107 159.802 92.9974 159.791C92.8954 159.791 92.7707 159.78 92.6234 159.757V158.72Z" fill="#A5A5A5"/>
<g clip-path="url(#clip0_3_78)">
<path d="M133.486 18H82.514C82.447 17.9995 82.3806 18.0122 82.3185 18.0373C82.2564 18.0624 82.1999 18.0996 82.1522 18.1466C82.1045 18.1935 82.0665 18.2495 82.0403 18.3112C82.0142 18.3728 82.0005 18.439 82 18.506V53.494C82.0005 53.561 82.0142 53.6272 82.0403 53.6889C82.0665 53.7506 82.1045 53.8065 82.1522 53.8535C82.1999 53.9005 82.2564 53.9376 82.3185 53.9627C82.3806 53.9879 82.447 54.0005 82.514 54H133.486C133.553 54.0005 133.619 53.9879 133.681 53.9627C133.744 53.9376 133.8 53.9005 133.848 53.8535C133.896 53.8065 133.934 53.7506 133.96 53.6889C133.986 53.6272 133.999 53.561 134 53.494V18.506C133.999 18.439 133.986 18.3728 133.96 18.3112C133.934 18.2495 133.896 18.1935 133.848 18.1466C133.8 18.0996 133.744 18.0624 133.681 18.0373C133.619 18.0122 133.553 17.9995 133.486 18ZM84.849 51.192V20.808H131.149V51.192H84.849Z" fill="black"/>
<path d="M84.4139 17H129.586C129.984 17 130.365 16.842 130.647 16.5607C130.928 16.2794 131.086 15.8978 131.086 15.5C131.086 15.1022 130.928 14.7206 130.647 14.4393C130.365 14.158 129.984 14 129.586 14H84.4139C84.0161 14 83.6346 14.158 83.3533 14.4393C83.072 14.7206 82.9139 15.1022 82.9139 15.5C82.9139 15.8978 83.072 16.2794 83.3533 16.5607C83.6346 16.842 84.0161 17 84.4139 17Z" fill="black"/>
<path d="M87.424 13H127.572C127.97 13 128.351 12.842 128.633 12.5607C128.914 12.2794 129.072 11.8978 129.072 11.5C129.072 11.1022 128.914 10.7206 128.633 10.4393C128.351 10.158 127.97 10 127.572 10H87.424C87.0261 10 86.6446 10.158 86.3633 10.4393C86.082 10.7206 85.924 11.1022 85.924 11.5C85.924 11.8978 86.082 12.2794 86.3633 12.5607C86.6446 12.842 87.0261 13 87.424 13Z" fill="black"/>
<path d="M90.408 9H124.592C124.977 8.98747 125.342 8.82248 125.606 8.54125C125.87 8.26002 126.012 7.88553 126 7.5C126.012 7.11447 125.87 6.73998 125.606 6.45875C125.342 6.17752 124.977 6.01253 124.592 6H90.408C90.0224 6.01253 89.6577 6.17752 89.3937 6.45875C89.1297 6.73998 88.9881 7.11447 89 7.5C88.9881 7.88553 89.1297 8.26002 89.3937 8.54125C89.6577 8.82248 90.0224 8.98747 90.408 9Z" fill="black"/>
</g>
<defs>
<clipPath id="clip0_3_78">
<rect width="52" height="48" fill="white" transform="translate(82 6)"/>
</clipPath>
</defs>
</svg>
