<svg width="176" height="155" viewBox="0 0 176 155" fill="none" xmlns="http://www.w3.org/2000/svg">
<circle cx="88.355" cy="31.355" r="31.355" fill="#08A6E4"/>
<path d="M20.9455 93C20.9455 92.3733 20.9921 91.8133 21.0855 91.32C21.1921 90.8267 21.3588 90.38 21.5855 89.98C21.8255 89.5667 22.1388 89.1867 22.5255 88.84C22.9255 88.48 23.4255 88.14 24.0255 87.82C24.6521 87.4867 25.1721 87.2067 25.5855 86.98C26.0121 86.74 26.3521 86.54 26.6055 86.38C26.8588 86.22 27.0321 86.0667 27.1255 85.92C27.2321 85.76 27.2855 85.5867 27.2855 85.4C27.2855 85.1467 27.2255 84.9267 27.1055 84.74C26.9855 84.5533 26.8121 84.4133 26.5855 84.32C26.3588 84.2133 26.0788 84.16 25.7455 84.16C25.4788 84.16 25.2255 84.1933 24.9855 84.26C24.7455 84.3267 24.5121 84.4267 24.2855 84.56C24.0721 84.6933 23.8655 84.8533 23.6655 85.04C23.4655 85.2133 23.2655 85.4133 23.0655 85.64L21.0455 83.28C21.2721 83.0533 21.5588 82.8267 21.9055 82.6C22.2655 82.3733 22.6721 82.1733 23.1255 82C23.5788 81.8133 24.0721 81.6667 24.6055 81.56C25.1521 81.44 25.7188 81.38 26.3055 81.38C27.2655 81.38 28.0721 81.5267 28.7255 81.82C29.3921 82.1 29.8988 82.5 30.2455 83.02C30.5921 83.54 30.7655 84.1533 30.7655 84.86C30.7655 85.3133 30.6921 85.7133 30.5455 86.06C30.4121 86.3933 30.2321 86.6933 30.0055 86.96C29.7788 87.2267 29.5188 87.4667 29.2255 87.68C28.9455 87.8933 28.6655 88.0867 28.3855 88.26C28.0655 88.42 27.7655 88.58 27.4855 88.74C27.2055 88.8867 26.9455 89.0333 26.7055 89.18C26.4655 89.3133 26.2388 89.46 26.0255 89.62C25.8255 89.7667 25.6321 89.9333 25.4455 90.12H30.9855V93H20.9455ZM49.167 87.14C49.167 88.3133 48.9404 89.36 48.487 90.28C48.0337 91.1867 47.4137 91.9 46.627 92.42C45.8404 92.94 44.947 93.2 43.947 93.2C42.9604 93.2 42.067 92.94 41.267 92.42C40.4804 91.9 39.8604 91.1867 39.407 90.28C38.9537 89.36 38.727 88.3133 38.727 87.14C38.727 85.9667 38.9537 84.9267 39.407 84.02C39.8604 83.1 40.4804 82.38 41.267 81.86C42.067 81.3267 42.9604 81.06 43.947 81.06C44.947 81.06 45.8404 81.3267 46.627 81.86C47.4137 82.38 48.0337 83.1 48.487 84.02C48.9404 84.9267 49.167 85.9667 49.167 87.14ZM45.947 87.14C45.947 86.5133 45.8604 85.9667 45.687 85.5C45.5137 85.0333 45.2737 84.6667 44.967 84.4C44.6737 84.1333 44.3337 84 43.947 84C43.547 84 43.1937 84.1333 42.887 84.4C42.5804 84.6667 42.3404 85.0333 42.167 85.5C42.007 85.9667 41.927 86.5133 41.927 87.14C41.927 87.7667 42.007 88.3133 42.167 88.78C42.3404 89.2467 42.5804 89.6133 42.887 89.88C43.1937 90.1333 43.547 90.26 43.947 90.26C44.3337 90.26 44.6737 90.1333 44.967 89.88C45.2737 89.6133 45.5137 89.2467 45.687 88.78C45.8604 88.3133 45.947 87.7667 45.947 87.14ZM67.4122 87.14C67.4122 88.3133 67.1855 89.36 66.7322 90.28C66.2789 91.1867 65.6589 91.9 64.8722 92.42C64.0855 92.94 63.1922 93.2 62.1922 93.2C61.2055 93.2 60.3122 92.94 59.5122 92.42C58.7255 91.9 58.1055 91.1867 57.6522 90.28C57.1989 89.36 56.9722 88.3133 56.9722 87.14C56.9722 85.9667 57.1989 84.9267 57.6522 84.02C58.1055 83.1 58.7255 82.38 59.5122 81.86C60.3122 81.3267 61.2055 81.06 62.1922 81.06C63.1922 81.06 64.0855 81.3267 64.8722 81.86C65.6589 82.38 66.2789 83.1 66.7322 84.02C67.1855 84.9267 67.4122 85.9667 67.4122 87.14ZM64.1922 87.14C64.1922 86.5133 64.1055 85.9667 63.9322 85.5C63.7589 85.0333 63.5189 84.6667 63.2122 84.4C62.9189 84.1333 62.5789 84 62.1922 84C61.7922 84 61.4389 84.1333 61.1322 84.4C60.8255 84.6667 60.5855 85.0333 60.4122 85.5C60.2522 85.9667 60.1722 86.5133 60.1722 87.14C60.1722 87.7667 60.2522 88.3133 60.4122 88.78C60.5855 89.2467 60.8255 89.6133 61.1322 89.88C61.4389 90.1333 61.7922 90.26 62.1922 90.26C62.5789 90.26 62.9189 90.1333 63.2122 89.88C63.5189 89.6133 63.7589 89.2467 63.9322 88.78C64.1055 88.3133 64.1922 87.7667 64.1922 87.14ZM85.6573 87.14C85.6573 88.3133 85.4307 89.36 84.9773 90.28C84.524 91.1867 83.904 91.9 83.1173 92.42C82.3307 92.94 81.4373 93.2 80.4373 93.2C79.4507 93.2 78.5573 92.94 77.7573 92.42C76.9707 91.9 76.3507 91.1867 75.8973 90.28C75.444 89.36 75.2173 88.3133 75.2173 87.14C75.2173 85.9667 75.444 84.9267 75.8973 84.02C76.3507 83.1 76.9707 82.38 77.7573 81.86C78.5573 81.3267 79.4507 81.06 80.4373 81.06C81.4373 81.06 82.3307 81.3267 83.1173 81.86C83.904 82.38 84.524 83.1 84.9773 84.02C85.4307 84.9267 85.6573 85.9667 85.6573 87.14ZM82.4373 87.14C82.4373 86.5133 82.3507 85.9667 82.1773 85.5C82.004 85.0333 81.764 84.6667 81.4573 84.4C81.164 84.1333 80.824 84 80.4373 84C80.0373 84 79.684 84.1333 79.3773 84.4C79.0707 84.6667 78.8307 85.0333 78.6573 85.5C78.4973 85.9667 78.4173 86.5133 78.4173 87.14C78.4173 87.7667 78.4973 88.3133 78.6573 88.78C78.8307 89.2467 79.0707 89.6133 79.3773 89.88C79.684 90.1333 80.0373 90.26 80.4373 90.26C80.824 90.26 81.164 90.1333 81.4573 89.88C81.764 89.6133 82.004 89.2467 82.1773 88.78C82.3507 88.3133 82.4373 87.7667 82.4373 87.14ZM103.902 87.14C103.902 88.3133 103.676 89.36 103.222 90.28C102.769 91.1867 102.149 91.9 101.362 92.42C100.576 92.94 99.6825 93.2 98.6825 93.2C97.6958 93.2 96.8025 92.94 96.0025 92.42C95.2158 91.9 94.5958 91.1867 94.1425 90.28C93.6892 89.36 93.4625 88.3133 93.4625 87.14C93.4625 85.9667 93.6892 84.9267 94.1425 84.02C94.5958 83.1 95.2158 82.38 96.0025 81.86C96.8025 81.3267 97.6958 81.06 98.6825 81.06C99.6825 81.06 100.576 81.3267 101.362 81.86C102.149 82.38 102.769 83.1 103.222 84.02C103.676 84.9267 103.902 85.9667 103.902 87.14ZM100.682 87.14C100.682 86.5133 100.596 85.9667 100.422 85.5C100.249 85.0333 100.009 84.6667 99.7025 84.4C99.4092 84.1333 99.0692 84 98.6825 84C98.2825 84 97.9292 84.1333 97.6225 84.4C97.3158 84.6667 97.0758 85.0333 96.9025 85.5C96.7425 85.9667 96.6625 86.5133 96.6625 87.14C96.6625 87.7667 96.7425 88.3133 96.9025 88.78C97.0758 89.2467 97.3158 89.6133 97.6225 89.88C97.9292 90.1333 98.2825 90.26 98.6825 90.26C99.0692 90.26 99.4092 90.1333 99.7025 89.88C100.009 89.6133 100.249 89.2467 100.422 88.78C100.596 88.3133 100.682 87.7667 100.682 87.14ZM122.148 87.14C122.148 88.3133 121.921 89.36 121.468 90.28C121.014 91.1867 120.394 91.9 119.608 92.42C118.821 92.94 117.928 93.2 116.928 93.2C115.941 93.2 115.048 92.94 114.248 92.42C113.461 91.9 112.841 91.1867 112.388 90.28C111.934 89.36 111.708 88.3133 111.708 87.14C111.708 85.9667 111.934 84.9267 112.388 84.02C112.841 83.1 113.461 82.38 114.248 81.86C115.048 81.3267 115.941 81.06 116.928 81.06C117.928 81.06 118.821 81.3267 119.608 81.86C120.394 82.38 121.014 83.1 121.468 84.02C121.921 84.9267 122.148 85.9667 122.148 87.14ZM118.928 87.14C118.928 86.5133 118.841 85.9667 118.668 85.5C118.494 85.0333 118.254 84.6667 117.948 84.4C117.654 84.1333 117.314 84 116.928 84C116.528 84 116.174 84.1333 115.868 84.4C115.561 84.6667 115.321 85.0333 115.148 85.5C114.988 85.9667 114.908 86.5133 114.908 87.14C114.908 87.7667 114.988 88.3133 115.148 88.78C115.321 89.2467 115.561 89.6133 115.868 89.88C116.174 90.1333 116.528 90.26 116.928 90.26C117.314 90.26 117.654 90.1333 117.948 89.88C118.254 89.6133 118.494 89.2467 118.668 88.78C118.841 88.3133 118.928 87.7667 118.928 87.14ZM140.393 87.14C140.393 88.3133 140.166 89.36 139.713 90.28C139.259 91.1867 138.639 91.9 137.853 92.42C137.066 92.94 136.173 93.2 135.173 93.2C134.186 93.2 133.293 92.94 132.493 92.42C131.706 91.9 131.086 91.1867 130.633 90.28C130.179 89.36 129.953 88.3133 129.953 87.14C129.953 85.9667 130.179 84.9267 130.633 84.02C131.086 83.1 131.706 82.38 132.493 81.86C133.293 81.3267 134.186 81.06 135.173 81.06C136.173 81.06 137.066 81.3267 137.853 81.86C138.639 82.38 139.259 83.1 139.713 84.02C140.166 84.9267 140.393 85.9667 140.393 87.14ZM137.173 87.14C137.173 86.5133 137.086 85.9667 136.913 85.5C136.739 85.0333 136.499 84.6667 136.193 84.4C135.899 84.1333 135.559 84 135.173 84C134.773 84 134.419 84.1333 134.113 84.4C133.806 84.6667 133.566 85.0333 133.393 85.5C133.233 85.9667 133.153 86.5133 133.153 87.14C133.153 87.7667 133.233 88.3133 133.393 88.78C133.566 89.2467 133.806 89.6133 134.113 89.88C134.419 90.1333 134.773 90.26 135.173 90.26C135.559 90.26 135.899 90.1333 136.193 89.88C136.499 89.6133 136.739 89.2467 136.913 88.78C137.086 88.3133 137.173 87.7667 137.173 87.14ZM154.858 84.62V87.18H152.958V89.26H150.078V87.18H148.198V84.62H150.078V82.54H152.958V84.62H154.858Z" fill="black"/>
<path d="M36.8969 132.16C36.2143 132.16 35.5796 132.048 34.9929 131.824C34.4063 131.6 33.8996 131.259 33.4729 130.8L33.9209 130.032C34.3903 130.469 34.8596 130.789 35.3289 130.992C35.8089 131.184 36.3156 131.28 36.8489 131.28C37.4996 131.28 38.0276 131.152 38.4329 130.896C38.8383 130.629 39.0409 130.251 39.0409 129.76C39.0409 129.429 38.9396 129.179 38.7369 129.008C38.5449 128.827 38.2623 128.683 37.8889 128.576C37.5263 128.459 37.0889 128.336 36.5769 128.208C36.0009 128.048 35.5156 127.883 35.1209 127.712C34.7369 127.531 34.4436 127.307 34.2409 127.04C34.0489 126.763 33.9529 126.405 33.9529 125.968C33.9529 125.424 34.0863 124.976 34.3529 124.624C34.6303 124.261 35.0036 123.989 35.4729 123.808C35.9529 123.616 36.4863 123.52 37.0729 123.52C37.7129 123.52 38.2783 123.621 38.7689 123.824C39.2596 124.027 39.6596 124.309 39.9689 124.672L39.4409 125.408C39.1423 125.067 38.7849 124.816 38.3689 124.656C37.9636 124.485 37.5103 124.4 37.0089 124.4C36.6676 124.4 36.3423 124.448 36.0329 124.544C35.7236 124.629 35.4676 124.779 35.2649 124.992C35.0729 125.195 34.9769 125.477 34.9769 125.84C34.9769 126.139 35.0516 126.373 35.2009 126.544C35.3503 126.704 35.5743 126.843 35.8729 126.96C36.1716 127.067 36.5396 127.184 36.9769 127.312C37.6063 127.483 38.1556 127.659 38.6249 127.84C39.0943 128.011 39.4569 128.235 39.7129 128.512C39.9689 128.789 40.0969 129.179 40.0969 129.68C40.0969 130.459 39.8036 131.067 39.2169 131.504C38.6303 131.941 37.8569 132.16 36.8969 132.16ZM45.4953 132.16C44.898 132.16 44.3433 132.048 43.8313 131.824C43.3193 131.589 42.8766 131.275 42.5033 130.88C42.13 130.475 41.8366 130.011 41.6233 129.488C41.4206 128.965 41.3193 128.405 41.3193 127.808C41.3193 127.029 41.4953 126.315 41.8473 125.664C42.21 125.013 42.706 124.496 43.3353 124.112C43.9646 123.717 44.6793 123.52 45.4793 123.52C46.3006 123.52 47.0153 123.717 47.6233 124.112C48.242 124.507 48.7273 125.029 49.0793 125.68C49.4313 126.32 49.6073 127.024 49.6073 127.792C49.6073 127.877 49.6073 127.963 49.6073 128.048C49.6073 128.123 49.602 128.181 49.5913 128.224H42.4553C42.5086 128.821 42.674 129.355 42.9513 129.824C43.2393 130.283 43.6073 130.651 44.0553 130.928C44.514 131.195 45.01 131.328 45.5433 131.328C46.0873 131.328 46.5993 131.189 47.0793 130.912C47.57 130.635 47.9113 130.272 48.1033 129.824L49.0473 130.08C48.8766 130.475 48.6153 130.832 48.2633 131.152C47.9113 131.472 47.4953 131.723 47.0153 131.904C46.546 132.075 46.0393 132.16 45.4953 132.16ZM42.4233 127.44H48.5833C48.5406 126.832 48.3753 126.299 48.0873 125.84C47.81 125.381 47.442 125.024 46.9833 124.768C46.5353 124.501 46.0393 124.368 45.4953 124.368C44.9513 124.368 44.4553 124.501 44.0073 124.768C43.5593 125.024 43.1913 125.387 42.9033 125.856C42.626 126.315 42.466 126.843 42.4233 127.44ZM54.8859 132.16C54.2886 132.16 53.7339 132.048 53.2219 131.824C52.7099 131.589 52.2673 131.275 51.8939 130.88C51.5206 130.475 51.2273 130.011 51.0139 129.488C50.8113 128.965 50.7099 128.405 50.7099 127.808C50.7099 127.029 50.8859 126.315 51.2379 125.664C51.6006 125.013 52.0966 124.496 52.7259 124.112C53.3553 123.717 54.0699 123.52 54.8699 123.52C55.6913 123.52 56.4059 123.717 57.0139 124.112C57.6326 124.507 58.1179 125.029 58.4699 125.68C58.8219 126.32 58.9979 127.024 58.9979 127.792C58.9979 127.877 58.9979 127.963 58.9979 128.048C58.9979 128.123 58.9926 128.181 58.9819 128.224H51.8459C51.8993 128.821 52.0646 129.355 52.3419 129.824C52.6299 130.283 52.9979 130.651 53.4459 130.928C53.9046 131.195 54.4006 131.328 54.9339 131.328C55.4779 131.328 55.9899 131.189 56.4699 130.912C56.9606 130.635 57.3019 130.272 57.4939 129.824L58.4379 130.08C58.2673 130.475 58.0059 130.832 57.6539 131.152C57.3019 131.472 56.8859 131.723 56.4059 131.904C55.9366 132.075 55.4299 132.16 54.8859 132.16ZM51.8139 127.44H57.9739C57.9313 126.832 57.7659 126.299 57.4779 125.84C57.2006 125.381 56.8326 125.024 56.3739 124.768C55.9259 124.501 55.4299 124.368 54.8859 124.368C54.3419 124.368 53.8459 124.501 53.3979 124.768C52.9499 125.024 52.5819 125.387 52.2939 125.856C52.0166 126.315 51.8566 126.843 51.8139 127.44ZM67.6846 132H66.5966V127.344C66.5966 126.363 66.4526 125.648 66.1646 125.2C65.8766 124.741 65.4232 124.512 64.8046 124.512C64.3779 124.512 63.9566 124.619 63.5406 124.832C63.1246 125.035 62.7566 125.317 62.4366 125.68C62.1272 126.032 61.9032 126.437 61.7646 126.896V132H60.6766V123.664H61.6686V125.552C61.8926 125.147 62.1859 124.795 62.5486 124.496C62.9112 124.187 63.3219 123.947 63.7806 123.776C64.2392 123.605 64.7139 123.52 65.2046 123.52C65.6632 123.52 66.0526 123.605 66.3726 123.776C66.6926 123.947 66.9486 124.192 67.1406 124.512C67.3326 124.821 67.4712 125.2 67.5566 125.648C67.6419 126.085 67.6846 126.576 67.6846 127.12V132ZM78.3388 132.16C77.6455 132.16 77.0215 131.979 76.4668 131.616C75.9228 131.253 75.4908 130.805 75.1708 130.272V135.408H74.0828V123.664H75.0588V125.28C75.3895 124.757 75.8321 124.336 76.3868 124.016C76.9415 123.685 77.5335 123.52 78.1628 123.52C78.7388 123.52 79.2668 123.643 79.7468 123.888C80.2268 124.123 80.6428 124.443 80.9948 124.848C81.3468 125.253 81.6188 125.717 81.8108 126.24C82.0135 126.752 82.1148 127.285 82.1148 127.84C82.1148 128.619 81.9548 129.339 81.6348 130C81.3255 130.651 80.8881 131.173 80.3228 131.568C79.7575 131.963 79.0961 132.16 78.3388 132.16ZM78.0348 131.2C78.4935 131.2 78.9041 131.109 79.2668 130.928C79.6295 130.736 79.9388 130.48 80.1948 130.16C80.4615 129.84 80.6641 129.483 80.8028 129.088C80.9415 128.683 81.0108 128.267 81.0108 127.84C81.0108 127.392 80.9308 126.965 80.7708 126.56C80.6215 126.155 80.4028 125.797 80.1148 125.488C79.8268 125.179 79.4961 124.933 79.1228 124.752C78.7495 124.571 78.3441 124.48 77.9068 124.48C77.6295 124.48 77.3415 124.533 77.0428 124.64C76.7441 124.747 76.4561 124.901 76.1788 125.104C75.9121 125.296 75.6881 125.515 75.5068 125.76C75.3255 126.005 75.2135 126.267 75.1708 126.544V129.104C75.3415 129.499 75.5708 129.856 75.8588 130.176C76.1468 130.485 76.4775 130.736 76.8508 130.928C77.2348 131.109 77.6295 131.2 78.0348 131.2ZM88.1178 124.624C87.3925 124.645 86.7525 124.848 86.1978 125.232C85.6538 125.616 85.2698 126.144 85.0458 126.816V132H83.9578V123.664H84.9818V125.664C85.2698 125.077 85.6485 124.603 86.1178 124.24C86.5978 123.877 87.1045 123.675 87.6378 123.632C87.7445 123.621 87.8351 123.616 87.9098 123.616C87.9951 123.616 88.0645 123.621 88.1178 123.632V124.624ZM92.8692 132.16C92.2719 132.16 91.7172 132.048 91.2052 131.824C90.7039 131.589 90.2665 131.275 89.8932 130.88C89.5305 130.475 89.2479 130.016 89.0452 129.504C88.8425 128.981 88.7412 128.432 88.7412 127.856C88.7412 127.259 88.8425 126.704 89.0452 126.192C89.2479 125.669 89.5359 125.211 89.9092 124.816C90.2825 124.411 90.7199 124.096 91.2212 123.872C91.7332 123.637 92.2879 123.52 92.8852 123.52C93.4825 123.52 94.0319 123.637 94.5332 123.872C95.0345 124.096 95.4719 124.411 95.8452 124.816C96.2185 125.211 96.5065 125.669 96.7092 126.192C96.9119 126.704 97.0132 127.259 97.0132 127.856C97.0132 128.432 96.9119 128.981 96.7092 129.504C96.5065 130.016 96.2185 130.475 95.8452 130.88C95.4825 131.275 95.0452 131.589 94.5332 131.824C94.0319 132.048 93.4772 132.16 92.8692 132.16ZM89.8452 127.872C89.8452 128.491 89.9785 129.056 90.2452 129.568C90.5225 130.069 90.8905 130.469 91.3492 130.768C91.8079 131.056 92.3145 131.2 92.8692 131.2C93.4239 131.2 93.9305 131.051 94.3892 130.752C94.8479 130.453 95.2159 130.048 95.4932 129.536C95.7705 129.013 95.9092 128.448 95.9092 127.84C95.9092 127.221 95.7705 126.656 95.4932 126.144C95.2159 125.632 94.8479 125.227 94.3892 124.928C93.9305 124.629 93.4239 124.48 92.8692 124.48C92.3145 124.48 91.8079 124.635 91.3492 124.944C90.9012 125.253 90.5385 125.664 90.2612 126.176C89.9839 126.677 89.8452 127.243 89.8452 127.872ZM98.2728 127.856C98.2728 127.067 98.4328 126.347 98.7528 125.696C99.0835 125.035 99.5368 124.507 100.113 124.112C100.689 123.717 101.345 123.52 102.081 123.52C102.774 123.52 103.393 123.707 103.937 124.08C104.491 124.443 104.923 124.885 105.233 125.408V120.32H106.321V130.688C106.321 130.837 106.353 130.949 106.417 131.024C106.481 131.088 106.577 131.125 106.705 131.136V132C106.491 132.032 106.326 132.043 106.209 132.032C105.985 132.021 105.787 131.931 105.617 131.76C105.446 131.589 105.361 131.403 105.361 131.2V130.384C105.03 130.928 104.582 131.36 104.017 131.68C103.451 132 102.865 132.16 102.257 132.16C101.681 132.16 101.147 132.043 100.657 131.808C100.177 131.573 99.7555 131.253 99.3928 130.848C99.0408 130.443 98.7635 129.984 98.5608 129.472C98.3688 128.949 98.2728 128.411 98.2728 127.856ZM105.233 129.136V126.56C105.094 126.176 104.87 125.829 104.561 125.52C104.251 125.2 103.899 124.949 103.505 124.768C103.121 124.576 102.737 124.48 102.353 124.48C101.905 124.48 101.499 124.576 101.137 124.768C100.774 124.949 100.459 125.2 100.193 125.52C99.9368 125.84 99.7395 126.203 99.6008 126.608C99.4621 127.013 99.3928 127.429 99.3928 127.856C99.3928 128.304 99.4675 128.731 99.6168 129.136C99.7768 129.541 100.001 129.904 100.289 130.224C100.577 130.533 100.907 130.773 101.281 130.944C101.654 131.115 102.059 131.2 102.497 131.2C102.774 131.2 103.062 131.147 103.361 131.04C103.659 130.933 103.942 130.789 104.209 130.608C104.486 130.416 104.715 130.192 104.897 129.936C105.078 129.68 105.19 129.413 105.233 129.136ZM108.706 128.56V123.664H109.794V128.368C109.794 129.317 109.954 130.027 110.274 130.496C110.605 130.965 111.09 131.2 111.73 131.2C112.157 131.2 112.567 131.109 112.962 130.928C113.367 130.736 113.725 130.469 114.034 130.128C114.343 129.776 114.578 129.371 114.738 128.912V123.664H115.826V130.688C115.826 130.837 115.858 130.949 115.922 131.024C115.986 131.088 116.082 131.125 116.21 131.136V132C116.082 132.011 115.981 132.016 115.906 132.016C115.831 132.027 115.762 132.032 115.698 132.032C115.485 132.011 115.298 131.925 115.138 131.776C114.989 131.627 114.909 131.445 114.898 131.232L114.866 130.112C114.503 130.752 114.007 131.253 113.378 131.616C112.759 131.979 112.087 132.16 111.362 132.16C110.487 132.16 109.826 131.856 109.378 131.248C108.93 130.64 108.706 129.744 108.706 128.56ZM121.902 132.16C121.294 132.16 120.734 132.048 120.222 131.824C119.721 131.589 119.278 131.269 118.894 130.864C118.521 130.459 118.227 129.995 118.014 129.472C117.811 128.949 117.71 128.395 117.71 127.808C117.71 127.019 117.886 126.299 118.238 125.648C118.59 124.997 119.081 124.48 119.71 124.096C120.339 123.712 121.065 123.52 121.886 123.52C122.665 123.52 123.353 123.701 123.95 124.064C124.547 124.416 124.99 124.896 125.278 125.504L124.222 125.84C123.987 125.413 123.657 125.083 123.23 124.848C122.814 124.603 122.35 124.48 121.838 124.48C121.283 124.48 120.777 124.624 120.318 124.912C119.859 125.2 119.491 125.595 119.214 126.096C118.947 126.597 118.814 127.168 118.814 127.808C118.814 128.437 118.953 129.008 119.23 129.52C119.507 130.032 119.875 130.443 120.334 130.752C120.793 131.051 121.299 131.2 121.854 131.2C122.217 131.2 122.563 131.136 122.894 131.008C123.235 130.88 123.529 130.709 123.774 130.496C124.03 130.272 124.201 130.032 124.286 129.776L125.358 130.096C125.209 130.491 124.958 130.848 124.606 131.168C124.265 131.477 123.859 131.723 123.39 131.904C122.931 132.075 122.435 132.16 121.902 132.16ZM131.067 131.6C130.982 131.632 130.849 131.691 130.667 131.776C130.486 131.861 130.267 131.936 130.011 132C129.755 132.064 129.478 132.096 129.179 132.096C128.87 132.096 128.577 132.037 128.299 131.92C128.033 131.803 127.819 131.627 127.659 131.392C127.499 131.147 127.419 130.848 127.419 130.496V124.528H126.267V123.664H127.419V120.848H128.507V123.664H130.427V124.528H128.507V130.192C128.529 130.491 128.635 130.715 128.827 130.864C129.03 131.013 129.259 131.088 129.515 131.088C129.814 131.088 130.086 131.04 130.331 130.944C130.577 130.837 130.726 130.763 130.779 130.72L131.067 131.6ZM135.163 132.16C134.48 132.16 133.845 132.048 133.259 131.824C132.672 131.6 132.165 131.259 131.739 130.8L132.187 130.032C132.656 130.469 133.125 130.789 133.595 130.992C134.075 131.184 134.581 131.28 135.115 131.28C135.765 131.28 136.293 131.152 136.699 130.896C137.104 130.629 137.307 130.251 137.307 129.76C137.307 129.429 137.205 129.179 137.003 129.008C136.811 128.827 136.528 128.683 136.155 128.576C135.792 128.459 135.355 128.336 134.843 128.208C134.267 128.048 133.781 127.883 133.387 127.712C133.003 127.531 132.709 127.307 132.507 127.04C132.315 126.763 132.219 126.405 132.219 125.968C132.219 125.424 132.352 124.976 132.619 124.624C132.896 124.261 133.269 123.989 133.739 123.808C134.219 123.616 134.752 123.52 135.339 123.52C135.979 123.52 136.544 123.621 137.035 123.824C137.525 124.027 137.925 124.309 138.235 124.672L137.707 125.408C137.408 125.067 137.051 124.816 136.635 124.656C136.229 124.485 135.776 124.4 135.275 124.4C134.933 124.4 134.608 124.448 134.299 124.544C133.989 124.629 133.733 124.779 133.531 124.992C133.339 125.195 133.243 125.477 133.243 125.84C133.243 126.139 133.317 126.373 133.467 126.544C133.616 126.704 133.84 126.843 134.139 126.96C134.437 127.067 134.805 127.184 135.243 127.312C135.872 127.483 136.421 127.659 136.891 127.84C137.36 128.011 137.723 128.235 137.979 128.512C138.235 128.789 138.363 129.179 138.363 129.68C138.363 130.459 138.069 131.067 137.483 131.504C136.896 131.941 136.123 132.16 135.163 132.16ZM56.8859 151.16C56.2886 151.16 55.7339 151.048 55.2219 150.824C54.7099 150.589 54.2673 150.275 53.8939 149.88C53.5206 149.475 53.2273 149.011 53.0139 148.488C52.8113 147.965 52.7099 147.405 52.7099 146.808C52.7099 146.029 52.8859 145.315 53.2379 144.664C53.6006 144.013 54.0966 143.496 54.7259 143.112C55.3553 142.717 56.0699 142.52 56.8699 142.52C57.6913 142.52 58.4059 142.717 59.0139 143.112C59.6326 143.507 60.1179 144.029 60.4699 144.68C60.8219 145.32 60.9979 146.024 60.9979 146.792C60.9979 146.877 60.9979 146.963 60.9979 147.048C60.9979 147.123 60.9926 147.181 60.9819 147.224H53.8459C53.8993 147.821 54.0646 148.355 54.3419 148.824C54.6299 149.283 54.9979 149.651 55.4459 149.928C55.9046 150.195 56.4006 150.328 56.9339 150.328C57.4779 150.328 57.9899 150.189 58.4699 149.912C58.9606 149.635 59.3019 149.272 59.4939 148.824L60.4379 149.08C60.2673 149.475 60.0059 149.832 59.6539 150.152C59.3019 150.472 58.8859 150.723 58.4059 150.904C57.9366 151.075 57.4299 151.16 56.8859 151.16ZM53.8139 146.44H59.9739C59.9313 145.832 59.7659 145.299 59.4779 144.84C59.2006 144.381 58.8326 144.024 58.3739 143.768C57.9259 143.501 57.4299 143.368 56.8859 143.368C56.3419 143.368 55.8459 143.501 55.3979 143.768C54.9499 144.024 54.5819 144.387 54.2939 144.856C54.0166 145.315 53.8566 145.843 53.8139 146.44ZM64.9378 151L61.5618 142.664H62.6978L65.5458 149.912L68.4098 142.664H69.4818L66.1058 151H64.9378ZM74.3078 151.16C73.7105 151.16 73.1558 151.048 72.6438 150.824C72.1318 150.589 71.6891 150.275 71.3158 149.88C70.9425 149.475 70.6491 149.011 70.4358 148.488C70.2331 147.965 70.1318 147.405 70.1318 146.808C70.1318 146.029 70.3078 145.315 70.6598 144.664C71.0225 144.013 71.5185 143.496 72.1478 143.112C72.7771 142.717 73.4918 142.52 74.2918 142.52C75.1131 142.52 75.8278 142.717 76.4358 143.112C77.0545 143.507 77.5398 144.029 77.8918 144.68C78.2438 145.32 78.4198 146.024 78.4198 146.792C78.4198 146.877 78.4198 146.963 78.4198 147.048C78.4198 147.123 78.4145 147.181 78.4038 147.224H71.2678C71.3211 147.821 71.4865 148.355 71.7638 148.824C72.0518 149.283 72.4198 149.651 72.8678 149.928C73.3265 150.195 73.8225 150.328 74.3558 150.328C74.8998 150.328 75.4118 150.189 75.8918 149.912C76.3825 149.635 76.7238 149.272 76.9158 148.824L77.8598 149.08C77.6891 149.475 77.4278 149.832 77.0758 150.152C76.7238 150.472 76.3078 150.723 75.8278 150.904C75.3585 151.075 74.8518 151.16 74.3078 151.16ZM71.2358 146.44H77.3958C77.3531 145.832 77.1878 145.299 76.8998 144.84C76.6225 144.381 76.2545 144.024 75.7958 143.768C75.3478 143.501 74.8518 143.368 74.3078 143.368C73.7638 143.368 73.2678 143.501 72.8198 143.768C72.3718 144.024 72.0038 144.387 71.7158 144.856C71.4385 145.315 71.2785 145.843 71.2358 146.44ZM84.2584 143.624C83.5331 143.645 82.8931 143.848 82.3384 144.232C81.7944 144.616 81.4104 145.144 81.1864 145.816V151H80.0984V142.664H81.1224V144.664C81.4104 144.077 81.7891 143.603 82.2584 143.24C82.7384 142.877 83.2451 142.675 83.7784 142.632C83.8851 142.621 83.9758 142.616 84.0504 142.616C84.1358 142.616 84.2051 142.621 84.2584 142.632V143.624ZM86.1878 153.56C86.3371 153.571 86.4811 153.576 86.6198 153.576C86.7585 153.587 86.8598 153.581 86.9238 153.56C87.0518 153.539 87.1745 153.464 87.2918 153.336C87.4091 153.208 87.5478 152.963 87.7078 152.6C87.8678 152.237 88.0918 151.704 88.3798 151L84.7478 142.664H85.8998L88.9558 149.88L91.7718 142.664H92.8598L88.5398 153.416C88.4651 153.619 88.3531 153.805 88.2038 153.976C88.0545 154.157 87.8678 154.296 87.6438 154.392C87.4305 154.499 87.1638 154.557 86.8438 154.568C86.7478 154.579 86.6465 154.579 86.5398 154.568C86.4438 154.568 86.3265 154.557 86.1878 154.536V153.56ZM97.4603 146.856C97.4603 146.067 97.6203 145.347 97.9403 144.696C98.271 144.035 98.7243 143.507 99.3003 143.112C99.8763 142.717 100.532 142.52 101.268 142.52C101.962 142.52 102.58 142.707 103.124 143.08C103.679 143.443 104.111 143.885 104.42 144.408V139.32H105.508V149.688C105.508 149.837 105.54 149.949 105.604 150.024C105.668 150.088 105.764 150.125 105.892 150.136V151C105.679 151.032 105.514 151.043 105.396 151.032C105.172 151.021 104.975 150.931 104.804 150.76C104.634 150.589 104.548 150.403 104.548 150.2V149.384C104.218 149.928 103.77 150.36 103.204 150.68C102.639 151 102.052 151.16 101.444 151.16C100.868 151.16 100.335 151.043 99.8443 150.808C99.3643 150.573 98.943 150.253 98.5803 149.848C98.2283 149.443 97.951 148.984 97.7483 148.472C97.5563 147.949 97.4603 147.411 97.4603 146.856ZM104.42 148.136V145.56C104.282 145.176 104.058 144.829 103.748 144.52C103.439 144.2 103.087 143.949 102.692 143.768C102.308 143.576 101.924 143.48 101.54 143.48C101.092 143.48 100.687 143.576 100.324 143.768C99.9616 143.949 99.647 144.2 99.3803 144.52C99.1243 144.84 98.927 145.203 98.7883 145.608C98.6496 146.013 98.5803 146.429 98.5803 146.856C98.5803 147.304 98.655 147.731 98.8043 148.136C98.9643 148.541 99.1883 148.904 99.4763 149.224C99.7643 149.533 100.095 149.773 100.468 149.944C100.842 150.115 101.247 150.2 101.684 150.2C101.962 150.2 102.25 150.147 102.548 150.04C102.847 149.933 103.13 149.789 103.396 149.608C103.674 149.416 103.903 149.192 104.084 148.936C104.266 148.68 104.378 148.413 104.42 148.136ZM107.301 148.6C107.301 148.077 107.451 147.629 107.749 147.256C108.048 146.872 108.459 146.579 108.981 146.376C109.515 146.163 110.128 146.056 110.821 146.056C111.227 146.056 111.648 146.088 112.085 146.152C112.523 146.216 112.912 146.312 113.253 146.44V145.736C113.253 145.032 113.045 144.472 112.629 144.056C112.213 143.64 111.637 143.432 110.901 143.432C110.453 143.432 110.011 143.517 109.573 143.688C109.147 143.848 108.699 144.088 108.229 144.408L107.813 143.64C108.357 143.267 108.891 142.989 109.413 142.808C109.936 142.616 110.469 142.52 111.013 142.52C112.037 142.52 112.848 142.813 113.445 143.4C114.043 143.987 114.341 144.797 114.341 145.832V149.688C114.341 149.837 114.373 149.949 114.437 150.024C114.501 150.088 114.603 150.125 114.741 150.136V151C114.624 151.011 114.523 151.021 114.437 151.032C114.352 151.043 114.288 151.043 114.245 151.032C113.979 151.021 113.776 150.936 113.637 150.776C113.499 150.616 113.424 150.445 113.413 150.264L113.397 149.656C113.024 150.136 112.539 150.509 111.941 150.776C111.344 151.032 110.736 151.16 110.117 151.16C109.584 151.16 109.099 151.048 108.661 150.824C108.235 150.589 107.899 150.28 107.653 149.896C107.419 149.501 107.301 149.069 107.301 148.6ZM112.885 149.24C113.003 149.091 113.093 148.947 113.157 148.808C113.221 148.669 113.253 148.547 113.253 148.44V147.224C112.891 147.085 112.512 146.979 112.117 146.904C111.733 146.829 111.344 146.792 110.949 146.792C110.171 146.792 109.541 146.947 109.061 147.256C108.581 147.565 108.341 147.987 108.341 148.52C108.341 148.829 108.421 149.123 108.581 149.4C108.741 149.667 108.976 149.891 109.285 150.072C109.595 150.243 109.957 150.328 110.373 150.328C110.896 150.328 111.381 150.227 111.829 150.024C112.288 149.821 112.64 149.56 112.885 149.24ZM116.922 153.56C117.072 153.571 117.216 153.576 117.354 153.576C117.493 153.587 117.594 153.581 117.658 153.56C117.786 153.539 117.909 153.464 118.026 153.336C118.144 153.208 118.282 152.963 118.442 152.6C118.602 152.237 118.826 151.704 119.114 151L115.482 142.664H116.634L119.69 149.88L122.506 142.664H123.594L119.274 153.416C119.2 153.619 119.088 153.805 118.938 153.976C118.789 154.157 118.602 154.296 118.378 154.392C118.165 154.499 117.898 154.557 117.578 154.568C117.482 154.579 117.381 154.579 117.274 154.568C117.178 154.568 117.061 154.557 116.922 154.536V153.56Z" fill="#A5A5A5"/>
<g clip-path="url(#clip0_3_66)">
<path d="M140.996 30.5C140.996 30.5 128.175 47 110.496 47C92.817 47 79.996 30.5 79.996 30.5C79.996 30.5 92.817 14 110.496 14C128.175 14 140.996 30.5 140.996 30.5Z" stroke="black" stroke-width="3.5" stroke-miterlimit="10"/>
<path d="M110.496 42.995C117.4 42.995 122.996 37.3986 122.996 30.495C122.996 23.5914 117.4 17.995 110.496 17.995C103.592 17.995 97.996 23.5914 97.996 30.495C97.996 37.3986 103.592 42.995 110.496 42.995Z" stroke="black" stroke-width="3.5" stroke-miterlimit="10"/>
<path d="M112.504 34.21C111.658 34.7377 110.661 34.9696 109.669 34.8693C108.678 34.769 107.747 34.3423 107.024 33.656C106.301 32.9697 105.826 32.0627 105.674 31.0774C105.523 30.0922 105.702 29.0844 106.185 28.2123C106.668 27.3402 107.427 26.6531 108.343 26.2589C109.258 25.8647 110.279 25.7857 111.244 26.0343C112.21 26.283 113.065 26.8451 113.677 27.6325C114.288 28.42 114.62 29.3881 114.622 30.385V30.512" stroke="black" stroke-width="3.5" stroke-miterlimit="10" stroke-linecap="round"/>
</g>
<defs>
<clipPath id="clip0_3_66">
<rect width="65.432" height="36.5" fill="white" transform="translate(77.78 12.25)"/>
</clipPath>
</defs>
</svg>
