<svg width="212" height="31" viewBox="0 0 212 31" fill="none" xmlns="http://www.w3.org/2000/svg">
<path d="M11.032 24.16C9.45333 24.16 8.01333 23.84 6.712 23.2C5.41067 22.5387 4.29067 21.664 3.352 20.576C2.41333 19.488 1.688 18.2613 1.176 16.896C0.664 15.5093 0.408 14.0907 0.408 12.64C0.408 11.1253 0.674667 9.68533 1.208 8.32C1.74133 6.93333 2.488 5.70667 3.448 4.64C4.42933 3.552 5.56 2.69867 6.84 2.08C8.14133 1.44 9.54933 1.12 11.064 1.12C12.664 1.12 14.104 1.45067 15.384 2.112C16.6853 2.77333 17.8053 3.65867 18.744 4.768C19.6827 5.87733 20.408 7.11467 20.92 8.48C21.432 9.84533 21.688 11.232 21.688 12.64C21.688 14.176 21.4213 15.6373 20.888 17.024C20.3547 18.3893 19.5973 19.616 18.616 20.704C17.656 21.7707 16.5253 22.6133 15.224 23.232C13.944 23.8507 12.5467 24.16 11.032 24.16ZM2.04 12.64C2.04 13.9413 2.264 15.1893 2.712 16.384C3.16 17.5787 3.77867 18.6453 4.568 19.584C5.37867 20.5227 6.328 21.2693 7.416 21.824C8.52533 22.3787 9.74133 22.656 11.064 22.656C12.408 22.656 13.6347 22.368 14.744 21.792C15.8533 21.216 16.8027 20.448 17.592 19.488C18.3813 18.528 18.9787 17.4613 19.384 16.288C19.8107 15.0933 20.024 13.8773 20.024 12.64C20.024 11.3387 19.8 10.0907 19.352 8.896C18.9253 7.70133 18.3067 6.63467 17.496 5.696C16.6853 4.75733 15.7253 4.01067 14.616 3.456C13.528 2.90133 12.344 2.624 11.064 2.624C9.69867 2.624 8.46133 2.912 7.352 3.488C6.24267 4.064 5.29333 4.832 4.504 5.792C3.736 6.752 3.128 7.82933 2.68 9.024C2.25333 10.1973 2.04 11.4027 2.04 12.64ZM24.1753 1.28L32.1113 11.584L40.0153 1.28H41.9033L33.0073 12.8L41.6473 24H39.7593L32.1113 14.016L24.4313 24H22.5113L31.1513 12.8L22.2553 1.28H24.1753ZM44.525 1.28L52.461 13.856L60.429 1.28H62.253L53.293 15.424V24H51.661V15.36L42.733 1.28H44.525ZM73.4078 24.16C71.8718 24.16 70.4531 23.8293 69.1518 23.168C67.8504 22.5067 66.7198 21.632 65.7598 20.544C64.7998 19.4347 64.0531 18.1973 63.5198 16.832C63.0078 15.4453 62.7518 14.0373 62.7518 12.608C62.7518 11.1147 63.0078 9.68533 63.5198 8.32C64.0318 6.93333 64.7571 5.70667 65.6958 4.64C66.6344 3.552 67.7438 2.69867 69.0238 2.08C70.3038 1.44 71.7011 1.12 73.2158 1.12C75.4771 1.12 77.3011 1.58933 78.6878 2.528C80.0958 3.44533 81.1624 4.62933 81.8878 6.08L80.5438 6.88C79.7758 5.38667 78.7518 4.30933 77.4718 3.648C76.2131 2.96533 74.7838 2.624 73.1838 2.624C71.8398 2.624 70.6238 2.912 69.5358 3.488C68.4478 4.04267 67.5198 4.8 66.7518 5.76C65.9838 6.69867 65.3971 7.76533 64.9918 8.96C64.5864 10.1547 64.3838 11.3813 64.3838 12.64C64.3838 13.984 64.6184 15.2533 65.0878 16.448C65.5571 17.6427 66.2078 18.7093 67.0398 19.648C67.8718 20.5867 68.8424 21.3227 69.9518 21.856C71.0611 22.3893 72.2451 22.656 73.5038 22.656C74.9758 22.656 76.3624 22.304 77.6638 21.6C78.9651 20.8747 80.2131 19.744 81.4078 18.208V20.032C79.1464 22.784 76.4798 24.16 73.4078 24.16ZM81.0558 14.272H75.9038V12.96H82.4638V24H81.0558V14.272ZM102.393 22.528V24H87.2573V1.28H102.105V2.752H88.8893V11.68H100.441V13.088H88.8893V22.528H102.393ZM108.483 4.32V24H106.851V1.28H108.195L124.035 21.28V1.28H125.667V24H124.067L108.483 4.32ZM153.036 5.056C152.673 4.65067 152.268 4.29867 151.82 4C151.372 3.68 150.892 3.424 150.38 3.232C149.868 3.01867 149.313 2.85867 148.716 2.752C148.118 2.64533 147.478 2.592 146.796 2.592C144.577 2.592 142.956 3.01867 141.932 3.872C140.929 4.704 140.428 5.83467 140.428 7.264C140.428 8.224 140.652 8.992 141.1 9.568C141.569 10.1227 142.294 10.5707 143.276 10.912C144.257 11.2533 145.526 11.584 147.084 11.904C148.726 12.2453 150.145 12.6507 151.34 13.12C152.534 13.568 153.452 14.1867 154.092 14.976C154.753 15.7653 155.084 16.832 155.084 18.176C155.084 19.1787 154.892 20.064 154.508 20.832C154.124 21.5787 153.569 22.1973 152.844 22.688C152.118 23.1787 151.254 23.552 150.252 23.808C149.27 24.064 148.172 24.192 146.956 24.192C145.782 24.192 144.662 24.064 143.596 23.808C142.529 23.552 141.526 23.1787 140.588 22.688C139.649 22.1973 138.774 21.568 137.964 20.8L138.828 19.488C139.297 20 139.82 20.4587 140.396 20.864C140.993 21.248 141.633 21.5787 142.316 21.856C143.02 22.1333 143.766 22.3573 144.556 22.528C145.345 22.6773 146.166 22.752 147.02 22.752C149.004 22.752 150.55 22.3893 151.66 21.664C152.79 20.9173 153.356 19.8187 153.356 18.368C153.356 17.3653 153.1 16.5547 152.588 15.936C152.076 15.3173 151.286 14.816 150.22 14.432C149.153 14.0267 147.82 13.6533 146.22 13.312C144.62 12.9707 143.254 12.5867 142.124 12.16C141.014 11.7333 140.172 11.1573 139.596 10.432C139.041 9.70667 138.764 8.72533 138.764 7.488C138.764 6.12267 139.094 4.97067 139.756 4.032C140.438 3.072 141.388 2.34667 142.604 1.856C143.82 1.36533 145.217 1.12 146.796 1.12C147.777 1.12 148.684 1.216 149.516 1.408C150.369 1.6 151.148 1.89867 151.852 2.304C152.577 2.688 153.249 3.17867 153.868 3.776L153.036 5.056ZM172.315 24H170.715V14.72C170.715 12.672 170.363 11.136 169.659 10.112C168.955 9.06667 167.931 8.544 166.587 8.544C165.712 8.544 164.837 8.768 163.963 9.216C163.088 9.664 162.331 10.2827 161.691 11.072C161.051 11.84 160.592 12.7147 160.315 13.696V24H158.715V0.639999H160.315V11.328C160.997 10.0267 161.947 8.992 163.163 8.224C164.379 7.456 165.669 7.072 167.035 7.072C167.973 7.072 168.773 7.24267 169.435 7.584C170.096 7.92533 170.64 8.416 171.067 9.056C171.493 9.696 171.803 10.464 171.995 11.36C172.208 12.256 172.315 13.28 172.315 14.432V24ZM184.128 24.32C182.955 24.32 181.867 24.096 180.864 23.648C179.883 23.2 179.03 22.5813 178.304 21.792C177.579 20.9813 177.014 20.0533 176.608 19.008C176.203 17.9627 176 16.864 176 15.712C176 14.5387 176.203 13.44 176.608 12.416C177.014 11.3707 177.579 10.4533 178.304 9.664C179.051 8.85333 179.915 8.224 180.896 7.776C181.899 7.30667 182.976 7.072 184.128 7.072C185.28 7.072 186.347 7.30667 187.328 7.776C188.31 8.224 189.174 8.85333 189.92 9.664C190.667 10.4533 191.243 11.3707 191.648 12.416C192.054 13.44 192.256 14.5387 192.256 15.712C192.256 16.864 192.054 17.9627 191.648 19.008C191.243 20.0533 190.667 20.9813 189.92 21.792C189.195 22.5813 188.331 23.2 187.328 23.648C186.347 24.096 185.28 24.32 184.128 24.32ZM177.6 15.776C177.6 17.0773 177.888 18.272 178.464 19.36C179.062 20.4267 179.851 21.28 180.832 21.92C181.814 22.56 182.902 22.88 184.096 22.88C185.291 22.88 186.379 22.56 187.36 21.92C188.363 21.2587 189.152 20.384 189.728 19.296C190.326 18.1867 190.624 16.9813 190.624 15.68C190.624 14.3787 190.326 13.184 189.728 12.096C189.152 11.008 188.363 10.144 187.36 9.504C186.379 8.84267 185.302 8.512 184.128 8.512C182.934 8.512 181.846 8.84267 180.864 9.504C179.883 10.1653 179.094 11.04 178.496 12.128C177.899 13.216 177.6 14.432 177.6 15.776ZM204.218 24.32C202.788 24.32 201.508 23.9467 200.378 23.2C199.268 22.432 198.372 21.504 197.69 20.416V30.816H196.09V7.36H197.562V10.688C198.244 9.62133 199.151 8.75733 200.282 8.096C201.412 7.41333 202.607 7.072 203.866 7.072C205.039 7.072 206.106 7.31733 207.066 7.808C208.026 8.27733 208.858 8.928 209.562 9.76C210.287 10.5707 210.842 11.488 211.226 12.512C211.631 13.536 211.834 14.6027 211.834 15.712C211.834 17.248 211.514 18.6773 210.874 20C210.234 21.3013 209.338 22.3467 208.186 23.136C207.055 23.9253 205.732 24.32 204.218 24.32ZM203.834 22.88C204.815 22.88 205.69 22.6773 206.458 22.272C207.247 21.8667 207.919 21.3227 208.474 20.64C209.028 19.9573 209.455 19.1893 209.754 18.336C210.052 17.4827 210.202 16.608 210.202 15.712C210.202 14.752 210.031 13.8453 209.69 12.992C209.348 12.1173 208.868 11.3493 208.25 10.688C207.652 10.0267 206.948 9.504 206.138 9.12C205.348 8.71467 204.484 8.512 203.546 8.512C202.97 8.512 202.351 8.62933 201.69 8.864C201.05 9.09867 200.431 9.42933 199.834 9.856C199.258 10.2827 198.778 10.7733 198.394 11.328C198.01 11.8613 197.775 12.416 197.69 12.992V18.464C198.074 19.2747 198.564 20.0213 199.162 20.704C199.78 21.3653 200.495 21.8987 201.306 22.304C202.116 22.688 202.959 22.88 203.834 22.88Z" fill="#08A6E4"/>
</svg>
