<svg width="24" height="24" viewBox="0 0 24 24" fill="none" xmlns="http://www.w3.org/2000/svg">
<g clip-path="url(#clip0_4_866)">
<path d="M12 24C18.6274 24 24 18.6274 24 12C24 5.37258 18.6274 0 12 0C5.37258 0 0 5.37258 0 12C0 18.6274 5.37258 24 12 24Z" fill="#55ACEE"/>
<path d="M18.9971 8.07207C18.4728 8.30444 17.9166 8.45681 17.3471 8.52407C17.947 8.16523 18.3959 7.60046 18.6101 6.93507C18.0465 7.27074 17.4295 7.50749 16.7861 7.63507C16.3525 7.17799 15.7807 6.87601 15.1587 6.77555C14.5367 6.6751 13.899 6.78173 13.3435 7.07906C12.7881 7.37639 12.3457 7.84795 12.0843 8.42123C11.823 8.99451 11.7572 9.63776 11.8971 10.2521C10.7551 10.1951 9.6379 9.89855 8.618 9.38171C7.5981 8.86486 6.69831 8.13928 5.97707 7.25207C5.60966 7.88446 5.49707 8.63311 5.66223 9.3456C5.8274 10.0581 6.25789 10.6808 6.86607 11.0871C6.41018 11.0727 5.96438 10.9493 5.56607 10.7271C5.56607 10.7391 5.56607 10.7511 5.56607 10.7631C5.56609 11.4256 5.79504 12.0678 6.21417 12.581C6.63329 13.0942 7.21685 13.4467 7.86607 13.5791C7.44221 13.6946 6.99755 13.7117 6.56607 13.6291C6.74946 14.1998 7.10668 14.699 7.58775 15.0567C8.06882 15.4144 8.64968 15.6128 9.24907 15.6241C8.04376 16.5651 6.51559 16.9921 4.99707 16.8121C6.23161 17.6032 7.65634 18.0474 9.12173 18.0981C10.5871 18.1488 12.0391 17.8041 13.3254 17.1001C14.6116 16.3962 15.6847 15.359 16.4319 14.0974C17.1791 12.8358 17.5729 11.3963 17.5721 9.93007C17.5721 9.80607 17.5721 9.68207 17.5641 9.55907C18.1265 9.15272 18.6118 8.64914 18.9971 8.07207Z" fill="#F1F2F2"/>
</g>
<defs>
<clipPath id="clip0_4_866">
<rect width="24" height="24" fill="white"/>
</clipPath>
</defs>
</svg>
